<svg width="1189" height="219" viewBox="0 0 1189 219" fill="none" xmlns="http://www.w3.org/2000/svg">
<path d="M0.335228 29.1562V0.818175H169.192V29.1562H101.116V219H68.304V29.1562H0.335228ZM206.505 219V0.818175H239.424V95.6335H348.196V0.818175H381.221V219H348.196V123.865H239.424V219H206.505ZM429.162 219V0.818175H506.931C523.835 0.818175 537.862 3.73011 549.012 9.55397C560.234 15.3778 568.615 23.4389 574.154 33.7372C579.694 43.9645 582.464 55.7898 582.464 69.2131C582.464 82.5653 579.659 94.3196 574.048 104.476C568.508 114.561 560.127 122.409 548.906 128.02C537.755 133.631 523.728 136.436 506.825 136.436H447.912V108.098H503.842C514.495 108.098 523.16 106.571 529.836 103.517C536.583 100.463 541.52 96.0241 544.645 90.2003C547.77 84.3764 549.332 77.3807 549.332 69.2131C549.332 60.9744 547.734 53.8366 544.538 47.7997C541.413 41.7628 536.477 37.1463 529.73 33.9503C523.054 30.6832 514.282 29.0497 503.416 29.0497H462.081V219H429.162ZM536.868 120.562L590.774 219H553.274L500.433 120.562H536.868ZM622.521 219V0.818175H759.311V29.1562H655.44V95.6335H752.173V123.865H655.44V190.662H760.589V219H622.521ZM821.713 219H786.77L865.286 0.818175H903.318L981.834 219H946.891L885.207 40.4489H883.503L821.713 219ZM827.572 133.56H940.925V161.259H827.572V133.56ZM1083.97 219H1013.34V0.818175H1086.21C1107.59 0.818175 1125.95 5.18608 1141.29 13.9219C1156.63 22.5866 1168.38 35.0511 1176.55 51.3153C1184.79 67.5085 1188.91 86.9332 1188.91 109.589C1188.91 132.317 1184.75 151.848 1176.44 168.183C1168.21 184.518 1156.27 197.089 1140.65 205.896C1125.02 214.632 1106.13 219 1083.97 219ZM1046.26 190.236H1082.16C1098.78 190.236 1112.6 187.111 1123.6 180.861C1134.61 174.54 1142.85 165.413 1148.32 153.482C1153.79 141.479 1156.52 126.848 1156.52 109.589C1156.52 92.473 1153.79 77.9489 1148.32 66.017C1142.92 54.0852 1134.86 45.0298 1124.14 38.8508C1113.41 32.6719 1100.1 29.5824 1084.19 29.5824H1046.26V190.236Z" fill="black"/>
</svg>
