<svg width="1320" height="150" viewBox="0 0 1320 150" fill="none" xmlns="http://www.w3.org/2000/svg">
<path d="M-0.00568128 21.4375V2.54545H112.565V21.4375H67.1818V148H45.3068V21.4375H-0.00568128ZM137.441 148V2.54545H159.387V65.7557H231.901V2.54545H253.918V148H231.901V84.5767H159.387V148H137.441ZM285.879 148V2.54545H377.072V21.4375H307.825V65.7557H372.313V84.5767H307.825V129.108H377.924V148H285.879ZM418.673 148H395.378L447.722 2.54545H473.077L525.42 148H502.125L461.003 28.9659H459.866L418.673 148ZM422.58 91.0398H498.148V109.506H422.58V91.0398ZM593.513 148H546.425V2.54545H595.005C609.257 2.54545 621.496 5.45738 631.724 11.2812C641.951 17.0578 649.787 25.3674 655.232 36.2102C660.725 47.0057 663.471 59.9555 663.471 75.0597C663.471 90.2112 660.701 103.232 655.161 114.122C649.669 125.012 641.714 133.393 631.298 139.264C620.881 145.088 608.286 148 593.513 148ZM568.371 128.824H592.306C603.386 128.824 612.595 126.741 619.934 122.574C627.273 118.36 632.765 112.276 636.411 104.321C640.057 96.3191 641.88 86.5653 641.88 75.0597C641.88 63.6487 640.057 53.9659 636.411 46.0114C632.813 38.0568 627.439 32.0199 620.289 27.9006C613.139 23.7812 604.262 21.7216 593.656 21.7216H568.371V128.824ZM811.571 49.8466H789.412C788.56 45.1117 786.973 40.9451 784.653 37.3466C782.333 33.7481 779.492 30.6941 776.131 28.1847C772.769 25.6752 769.005 23.7812 764.838 22.5028C760.719 21.2244 756.339 20.5852 751.699 20.5852C743.318 20.5852 735.813 22.6922 729.185 26.9062C722.603 31.1203 717.395 37.2992 713.56 45.4432C709.772 53.5871 707.878 63.5303 707.878 75.2727C707.878 87.1098 709.772 97.1004 713.56 105.244C717.395 113.388 722.627 119.544 729.256 123.71C735.884 127.877 743.342 129.96 751.628 129.96C756.221 129.96 760.577 129.345 764.696 128.114C768.863 126.835 772.627 124.965 775.989 122.503C779.35 120.041 782.191 117.034 784.511 113.483C786.879 109.884 788.512 105.765 789.412 101.125L811.571 101.196C810.387 108.346 808.091 114.927 804.682 120.94C801.32 126.906 796.988 132.067 791.685 136.423C786.429 140.732 780.416 144.07 773.645 146.438C766.874 148.805 759.488 149.989 751.486 149.989C738.891 149.989 727.67 147.006 717.821 141.04C707.973 135.027 700.207 126.433 694.526 115.259C688.891 104.084 686.074 90.7557 686.074 75.2727C686.074 59.7424 688.915 46.4138 694.597 35.2869C700.278 24.1127 708.044 15.5426 717.892 9.5767C727.741 3.56344 738.938 0.556813 751.486 0.556813C759.204 0.556813 766.401 1.6695 773.077 3.89489C779.8 6.07291 785.837 9.29261 791.188 13.554C796.538 17.768 800.965 22.929 804.469 29.0369C807.973 35.0975 810.34 42.0341 811.571 49.8466ZM826.61 2.54545H851.539L889.536 68.6676H891.099L929.096 2.54545H954.025L901.255 90.8977V148H879.38V90.8977L826.61 2.54545ZM1088.13 49.8466H1065.97C1065.12 45.1117 1063.54 40.9451 1061.22 37.3466C1058.9 33.7481 1056.05 30.6941 1052.69 28.1847C1049.33 25.6752 1045.57 23.7812 1041.4 22.5028C1037.28 21.2244 1032.9 20.5852 1028.26 20.5852C1019.88 20.5852 1012.38 22.6922 1005.75 26.9062C999.166 31.1203 993.957 37.2992 990.122 45.4432C986.334 53.5871 984.44 63.5303 984.44 75.2727C984.44 87.1098 986.334 97.1004 990.122 105.244C993.957 113.388 999.189 119.544 1005.82 123.71C1012.45 127.877 1019.9 129.96 1028.19 129.96C1032.78 129.96 1037.14 129.345 1041.26 128.114C1045.43 126.835 1049.19 124.965 1052.55 122.503C1055.91 120.041 1058.75 117.034 1061.07 113.483C1063.44 109.884 1065.07 105.765 1065.97 101.125L1088.13 101.196C1086.95 108.346 1084.65 114.927 1081.24 120.94C1077.88 126.906 1073.55 132.067 1068.25 136.423C1062.99 140.732 1056.98 144.07 1050.21 146.438C1043.44 148.805 1036.05 149.989 1028.05 149.989C1015.45 149.989 1004.23 147.006 994.384 141.04C984.535 135.027 976.77 126.433 971.088 115.259C965.454 104.084 962.636 90.7557 962.636 75.2727C962.636 59.7424 965.477 46.4138 971.159 35.2869C976.841 24.1127 984.606 15.5426 994.455 9.5767C1004.3 3.56344 1015.5 0.556813 1028.05 0.556813C1035.77 0.556813 1042.96 1.6695 1049.64 3.89489C1056.36 6.07291 1062.4 9.29261 1067.75 13.554C1073.1 17.768 1077.53 22.929 1081.03 29.0369C1084.54 35.0975 1086.9 42.0341 1088.13 49.8466ZM1114.39 148V2.54545H1136.34V129.108H1202.25V148H1114.39ZM1227.28 148V2.54545H1318.48V21.4375H1249.23V65.7557H1313.72V84.5767H1249.23V129.108H1319.33V148H1227.28Z" fill="black"/>
</svg>
