<svg xmlns="http://www.w3.org/2000/svg" xmlns:xlink="http://www.w3.org/1999/xlink" width="408" zoomAndPan="magnify" viewBox="0 0 306 102.749999" height="137" preserveAspectRatio="xMidYMid meet" version="1.0"><defs><g/><clipPath id="3862d539b3"><path d="M 36 29 L 43 29 L 43 99 L 36 99 Z M 36 29 " clip-rule="nonzero"/></clipPath><clipPath id="fb8cffefb6"><path d="M 60.15625 0 L 99.496094 59.199219 L 39.671875 98.949219 L 0.335938 39.75 Z M 60.15625 0 " clip-rule="nonzero"/></clipPath><clipPath id="ebbfa306fa"><path d="M 99.488281 59.1875 L 60.152344 -0.0078125 L 0.328125 39.742188 L 39.667969 98.941406 Z M 99.488281 59.1875 " clip-rule="nonzero"/></clipPath><clipPath id="b467d606b7"><path d="M 99.488281 59.1875 L 60.152344 -0.0078125 L 0.328125 39.742188 L 39.667969 98.941406 Z M 99.488281 59.1875 " clip-rule="nonzero"/></clipPath><clipPath id="57ffdc0476"><path d="M 22 5 L 70 5 L 70 42 L 22 42 Z M 22 5 " clip-rule="nonzero"/></clipPath><clipPath id="5775b6b515"><path d="M 60.15625 0 L 99.496094 59.199219 L 39.671875 98.949219 L 0.335938 39.75 Z M 60.15625 0 " clip-rule="nonzero"/></clipPath><clipPath id="f093dbcff3"><path d="M 99.488281 59.1875 L 60.152344 -0.0078125 L 0.328125 39.742188 L 39.667969 98.941406 Z M 99.488281 59.1875 " clip-rule="nonzero"/></clipPath><clipPath id="27f63013c7"><path d="M 99.488281 59.1875 L 60.152344 -0.0078125 L 0.328125 39.742188 L 39.667969 98.941406 Z M 99.488281 59.1875 " clip-rule="nonzero"/></clipPath></defs><g clip-path="url(#3862d539b3)"><g clip-path="url(#fb8cffefb6)"><g clip-path="url(#ebbfa306fa)"><g clip-path="url(#b467d606b7)"><path stroke-linecap="butt" transform="matrix(-0.0945381, -0.142271, -0.14234, 0.0945841, 108.798385, 68.610451)" fill-opacity="1" fill="#000000" fill-rule="evenodd" stroke-linejoin="miter" d="M 414.6909 211.26019 C 406.964351 199.5968 344.638572 232.264762 311.671909 269.198961 C 272.803925 295.398066 120.38568 398.221206 76.167993 434.834169 C 127.194591 408.545608 281.612516 308.730339 320.961437 283.254645 C 367.874984 267.464216 422.385746 222.917193 414.671854 211.27284 Z M 404.603555 217.356144 C 406.672781 220.509925 389.684293 235.388183 366.695382 250.574372 C 343.674769 265.754173 323.338778 275.555898 321.250505 272.414767 C 319.181278 269.260986 336.169766 254.382728 359.158677 239.196539 C 382.166634 223.997701 402.515281 214.215013 404.603555 217.356144 Z M 404.603555 217.356144 " stroke="#000000" stroke-width="0.348" stroke-opacity="1" stroke-miterlimit="4"/></g></g></g></g><g clip-path="url(#57ffdc0476)"><g clip-path="url(#5775b6b515)"><g clip-path="url(#f093dbcff3)"><g clip-path="url(#27f63013c7)"><path fill="#000000" d="M 38.585938 41.753906 C 38.207031 41.75 42.429688 41.863281 37.109375 41.734375 C 31.785156 41.605469 28.296875 40.777344 22.621094 37.234375 C 22.242188 37 22.125 36.5 22.363281 36.121094 C 22.601562 35.742188 23.101562 35.625 23.480469 35.863281 C 28.980469 39.296875 31.976562 40.015625 37.078125 40.121094 C 42.183594 40.226562 38.183594 40.132812 38.5625 40.136719 C 38.941406 40.136719 39.332031 40.136719 39.734375 40.132812 C 40.097656 40.132812 40.484375 40.125 40.890625 40.121094 C 40.890625 40.171875 40.894531 40.222656 40.894531 40.277344 C 40.894531 40.777344 40.886719 41.261719 40.878906 41.738281 C 40.480469 41.742188 40.097656 41.75 39.742188 41.75 C 39.347656 41.753906 38.960938 41.753906 38.585938 41.753906 Z M 68.03125 11.890625 C 68.089844 11.980469 68.144531 12.070312 68.203125 12.160156 C 68.328125 12.363281 68.441406 12.566406 68.546875 12.769531 C 69.367188 14.382812 69.386719 15.960938 68.671875 17.171875 C 67.957031 18.386719 66.640625 19.171875 65.054688 19.613281 C 63.46875 20.050781 61.578125 20.15625 59.558594 19.910156 C 59.113281 19.855469 58.800781 19.453125 58.851562 19.007812 C 58.90625 18.566406 59.308594 18.25 59.753906 18.304688 C 61.597656 18.527344 63.300781 18.421875 64.625 18.054688 C 65.949219 17.6875 66.863281 17.066406 67.28125 16.355469 C 67.699219 15.644531 67.753906 14.777344 67.105469 13.503906 C 66.457031 12.230469 65.050781 10.628906 62.664062 8.832031 C 58.050781 5.355469 53.386719 6.515625 50.488281 8.96875 C 49.035156 10.191406 48.078125 11.753906 47.832031 13.132812 C 47.589844 14.515625 47.941406 15.675781 49.269531 16.578125 C 52.304688 18.648438 55.546875 20.183594 58.140625 22.347656 C 60.734375 24.511719 62.636719 27.402344 62.75 31.847656 C 62.808594 34.183594 61.710938 36.074219 60.035156 37.429688 C 58.359375 38.78125 56.128906 39.671875 53.703125 40.300781 C 49.875 41.289062 45.550781 41.605469 42.191406 41.707031 C 42.207031 41.160156 42.214844 40.621094 42.210938 40.085938 C 45.507812 39.984375 49.703125 39.664062 53.300781 38.734375 C 55.59375 38.140625 57.628906 37.292969 59.019531 36.171875 C 60.414062 35.046875 61.175781 33.722656 61.128906 31.886719 C 61.027344 27.867188 59.46875 25.5625 57.105469 23.589844 C 54.738281 21.613281 51.523438 20.070312 48.355469 17.910156 C 46.558594 16.683594 45.914062 14.722656 46.242188 12.851562 C 46.570312 10.984375 47.753906 9.160156 49.445312 7.730469 C 52.828125 4.871094 58.457031 3.632812 63.640625 7.539062 C 65.699219 9.089844 67.128906 10.53125 68.03125 11.890625 Z M 68.03125 11.890625 " fill-opacity="1" fill-rule="evenodd"/></g></g></g></g><g fill="#000000" fill-opacity="1"><g transform="translate(63.445192, 69.676877)"><g><path d="M 16.265625 -13.015625 C 16.265625 -14.710938 15.921875 -15.960938 15.234375 -16.765625 C 14.554688 -17.566406 13.644531 -17.96875 12.5 -17.96875 C 12.070312 -17.96875 11.597656 -17.878906 11.078125 -17.703125 C 10.554688 -17.523438 10.019531 -17.289062 9.46875 -17 C 8.925781 -16.707031 8.382812 -16.363281 7.84375 -15.96875 C 7.300781 -15.570312 6.800781 -15.15625 6.34375 -14.71875 L 6.34375 -7.546875 C 6.34375 -6.453125 6.351562 -5.492188 6.375 -4.671875 C 6.394531 -3.859375 6.429688 -3.15625 6.484375 -2.5625 C 6.535156 -1.976562 6.59375 -1.484375 6.65625 -1.078125 C 6.726562 -0.679688 6.800781 -0.347656 6.875 -0.078125 L 6.875 0 L 2.421875 0 L 2.421875 -0.078125 C 2.492188 -0.347656 2.566406 -0.679688 2.640625 -1.078125 C 2.710938 -1.484375 2.769531 -1.976562 2.8125 -2.5625 C 2.851562 -3.15625 2.890625 -3.859375 2.921875 -4.671875 C 2.953125 -5.492188 2.96875 -6.453125 2.96875 -7.546875 L 2.96875 -21.328125 C 2.96875 -22.421875 2.953125 -23.375 2.921875 -24.1875 C 2.890625 -25.007812 2.851562 -25.71875 2.8125 -26.3125 C 2.769531 -26.90625 2.710938 -27.398438 2.640625 -27.796875 C 2.566406 -28.191406 2.492188 -28.523438 2.421875 -28.796875 L 2.421875 -28.875 L 6.875 -28.875 L 6.875 -28.796875 C 6.800781 -28.523438 6.726562 -28.191406 6.65625 -27.796875 C 6.59375 -27.398438 6.535156 -26.90625 6.484375 -26.3125 C 6.429688 -25.71875 6.394531 -25.007812 6.375 -24.1875 C 6.351562 -23.375 6.34375 -22.421875 6.34375 -21.328125 L 6.34375 -16.375 C 6.851562 -16.84375 7.421875 -17.300781 8.046875 -17.75 C 8.671875 -18.195312 9.316406 -18.601562 9.984375 -18.96875 C 10.648438 -19.332031 11.332031 -19.625 12.03125 -19.84375 C 12.726562 -20.0625 13.410156 -20.171875 14.078125 -20.171875 C 15.085938 -20.171875 15.941406 -19.992188 16.640625 -19.640625 C 17.335938 -19.296875 17.910156 -18.835938 18.359375 -18.265625 C 18.804688 -17.703125 19.128906 -17.054688 19.328125 -16.328125 C 19.523438 -15.597656 19.625 -14.863281 19.625 -14.125 L 19.625 -7.546875 C 19.625 -6.453125 19.632812 -5.492188 19.65625 -4.671875 C 19.6875 -3.859375 19.726562 -3.15625 19.78125 -2.5625 C 19.832031 -1.976562 19.890625 -1.484375 19.953125 -1.078125 C 20.015625 -0.679688 20.085938 -0.347656 20.171875 -0.078125 L 20.171875 0 L 15.703125 0 L 15.703125 -0.078125 C 15.785156 -0.347656 15.859375 -0.679688 15.921875 -1.078125 C 15.992188 -1.484375 16.050781 -1.976562 16.09375 -2.5625 C 16.144531 -3.15625 16.1875 -3.859375 16.21875 -4.671875 C 16.25 -5.492188 16.265625 -6.453125 16.265625 -7.546875 Z M 16.265625 -13.015625 "/></g></g></g><g fill="#000000" fill-opacity="1"><g transform="translate(86.38499, 69.676877)"><g><path d="M 2.96875 -12.234375 C 2.96875 -13.328125 2.953125 -14.28125 2.921875 -15.09375 C 2.890625 -15.914062 2.851562 -16.617188 2.8125 -17.203125 C 2.769531 -17.796875 2.710938 -18.289062 2.640625 -18.6875 C 2.566406 -19.09375 2.492188 -19.429688 2.421875 -19.703125 L 2.421875 -19.78125 L 6.875 -19.78125 L 6.875 -19.703125 C 6.769531 -19.410156 6.679688 -19.050781 6.609375 -18.625 C 6.546875 -18.195312 6.492188 -17.648438 6.453125 -16.984375 C 6.929688 -17.378906 7.425781 -17.769531 7.9375 -18.15625 C 8.457031 -18.539062 8.984375 -18.878906 9.515625 -19.171875 C 10.054688 -19.472656 10.609375 -19.710938 11.171875 -19.890625 C 11.734375 -20.078125 12.296875 -20.171875 12.859375 -20.171875 C 13.210938 -20.171875 13.515625 -20.15625 13.765625 -20.125 C 14.023438 -20.09375 14.257812 -20.046875 14.46875 -19.984375 C 14.675781 -19.921875 14.863281 -19.851562 15.03125 -19.78125 C 15.195312 -19.71875 15.359375 -19.65625 15.515625 -19.59375 L 14.5625 -15.890625 L 14.234375 -15.96875 C 14.078125 -16.539062 13.785156 -16.992188 13.359375 -17.328125 C 12.941406 -17.671875 12.363281 -17.84375 11.625 -17.84375 C 11.226562 -17.84375 10.8125 -17.769531 10.375 -17.625 C 9.9375 -17.488281 9.488281 -17.296875 9.03125 -17.046875 C 8.582031 -16.796875 8.132812 -16.503906 7.6875 -16.171875 C 7.238281 -15.847656 6.800781 -15.503906 6.375 -15.140625 C 6.351562 -14.765625 6.34375 -14.359375 6.34375 -13.921875 C 6.34375 -13.484375 6.34375 -13.019531 6.34375 -12.53125 L 6.34375 -7.546875 C 6.34375 -6.453125 6.351562 -5.492188 6.375 -4.671875 C 6.394531 -3.859375 6.429688 -3.15625 6.484375 -2.5625 C 6.535156 -1.976562 6.59375 -1.484375 6.65625 -1.078125 C 6.726562 -0.679688 6.800781 -0.347656 6.875 -0.078125 L 6.875 0 L 2.421875 0 L 2.421875 -0.078125 C 2.492188 -0.347656 2.566406 -0.679688 2.640625 -1.078125 C 2.710938 -1.484375 2.769531 -1.976562 2.8125 -2.5625 C 2.851562 -3.15625 2.890625 -3.859375 2.921875 -4.671875 C 2.953125 -5.492188 2.96875 -6.453125 2.96875 -7.546875 Z M 2.96875 -12.234375 "/></g></g></g><g fill="#000000" fill-opacity="1"><g transform="translate(102.370883, 69.676877)"><g><path d="M 11.625 0.34375 C 10.195312 0.34375 8.859375 0.117188 7.609375 -0.328125 C 6.359375 -0.773438 5.269531 -1.429688 4.34375 -2.296875 C 3.414062 -3.171875 2.6875 -4.25 2.15625 -5.53125 C 1.625 -6.8125 1.359375 -8.273438 1.359375 -9.921875 C 1.359375 -11.378906 1.601562 -12.726562 2.09375 -13.96875 C 2.582031 -15.21875 3.253906 -16.296875 4.109375 -17.203125 C 4.972656 -18.117188 5.976562 -18.832031 7.125 -19.34375 C 8.28125 -19.863281 9.53125 -20.125 10.875 -20.125 C 12.195312 -20.125 13.425781 -19.894531 14.5625 -19.4375 C 15.695312 -18.976562 16.675781 -18.316406 17.5 -17.453125 C 18.332031 -16.585938 18.988281 -15.515625 19.46875 -14.234375 C 19.957031 -12.953125 20.222656 -11.492188 20.265625 -9.859375 C 18.804688 -9.878906 17.347656 -9.894531 15.890625 -9.90625 C 14.441406 -9.914062 12.929688 -9.921875 11.359375 -9.921875 C 10.234375 -9.921875 9.140625 -9.914062 8.078125 -9.90625 C 7.015625 -9.894531 6.0625 -9.878906 5.21875 -9.859375 C 5.289062 -8.515625 5.5 -7.300781 5.84375 -6.21875 C 6.1875 -5.132812 6.65625 -4.207031 7.25 -3.4375 C 7.851562 -2.675781 8.582031 -2.085938 9.4375 -1.671875 C 10.289062 -1.265625 11.257812 -1.0625 12.34375 -1.0625 C 13.09375 -1.0625 13.796875 -1.144531 14.453125 -1.3125 C 15.117188 -1.488281 15.722656 -1.734375 16.265625 -2.046875 C 16.804688 -2.359375 17.289062 -2.722656 17.71875 -3.140625 C 18.144531 -3.554688 18.503906 -4.007812 18.796875 -4.5 L 19.03125 -4.390625 L 17.59375 -0.953125 C 16.90625 -0.585938 16.078125 -0.28125 15.109375 -0.03125 C 14.140625 0.21875 12.976562 0.34375 11.625 0.34375 Z M 9.0625 -11.4375 C 10.34375 -11.4375 11.628906 -11.4375 12.921875 -11.4375 C 14.222656 -11.445312 15.398438 -11.472656 16.453125 -11.515625 C 16.335938 -12.628906 16.117188 -13.628906 15.796875 -14.515625 C 15.472656 -15.410156 15.0625 -16.164062 14.5625 -16.78125 C 14.0625 -17.40625 13.46875 -17.882812 12.78125 -18.21875 C 12.101562 -18.550781 11.351562 -18.71875 10.53125 -18.71875 C 9.78125 -18.71875 9.09375 -18.550781 8.46875 -18.21875 C 7.84375 -17.894531 7.296875 -17.421875 6.828125 -16.796875 C 6.367188 -16.179688 6 -15.425781 5.71875 -14.53125 C 5.4375 -13.632812 5.269531 -12.613281 5.21875 -11.46875 C 5.789062 -11.445312 6.398438 -11.4375 7.046875 -11.4375 C 7.691406 -11.4375 8.363281 -11.4375 9.0625 -11.4375 Z M 9.0625 -11.4375 "/></g></g></g><g fill="#000000" fill-opacity="1"><g transform="translate(124.28691, 69.676877)"><g><path d="M 1.421875 -5.703125 C 1.421875 -6.710938 1.628906 -7.59375 2.046875 -8.34375 C 2.472656 -9.09375 3.03125 -9.726562 3.71875 -10.25 C 4.414062 -10.78125 5.207031 -11.207031 6.09375 -11.53125 C 6.988281 -11.863281 7.910156 -12.125 8.859375 -12.3125 C 9.816406 -12.5 10.757812 -12.628906 11.6875 -12.703125 C 12.613281 -12.773438 13.460938 -12.816406 14.234375 -12.828125 L 14.234375 -13.8125 C 14.234375 -14.664062 14.125 -15.398438 13.90625 -16.015625 C 13.6875 -16.628906 13.375 -17.140625 12.96875 -17.546875 C 12.570312 -17.953125 12.09375 -18.253906 11.53125 -18.453125 C 10.976562 -18.648438 10.367188 -18.75 9.703125 -18.75 C 9.234375 -18.75 8.773438 -18.710938 8.328125 -18.640625 C 7.878906 -18.566406 7.410156 -18.4375 6.921875 -18.25 C 6.441406 -18.070312 5.929688 -17.828125 5.390625 -17.515625 C 4.859375 -17.210938 4.285156 -16.820312 3.671875 -16.34375 L 3.484375 -16.453125 L 4.796875 -19.1875 C 5.210938 -19.375 5.628906 -19.53125 6.046875 -19.65625 C 6.460938 -19.78125 6.878906 -19.878906 7.296875 -19.953125 C 7.722656 -20.035156 8.15625 -20.09375 8.59375 -20.125 C 9.039062 -20.15625 9.507812 -20.171875 10 -20.171875 C 11.351562 -20.171875 12.507812 -20.003906 13.46875 -19.671875 C 14.425781 -19.347656 15.210938 -18.898438 15.828125 -18.328125 C 16.441406 -17.753906 16.890625 -17.082031 17.171875 -16.3125 C 17.453125 -15.550781 17.59375 -14.726562 17.59375 -13.84375 L 17.59375 -7.546875 C 17.59375 -6.453125 17.609375 -5.492188 17.640625 -4.671875 C 17.671875 -3.859375 17.707031 -3.15625 17.75 -2.5625 C 17.800781 -1.976562 17.863281 -1.484375 17.9375 -1.078125 C 18.007812 -0.679688 18.082031 -0.347656 18.15625 -0.078125 L 18.15625 0 L 13.890625 0 L 13.890625 -0.078125 C 13.953125 -0.285156 14 -0.515625 14.03125 -0.765625 C 14.0625 -1.023438 14.09375 -1.335938 14.125 -1.703125 C 13.851562 -1.472656 13.53125 -1.234375 13.15625 -0.984375 C 12.789062 -0.742188 12.375 -0.519531 11.90625 -0.3125 C 11.4375 -0.113281 10.914062 0.0390625 10.34375 0.15625 C 9.769531 0.28125 9.144531 0.34375 8.46875 0.34375 C 6.21875 0.34375 4.476562 -0.175781 3.25 -1.21875 C 2.03125 -2.269531 1.421875 -3.765625 1.421875 -5.703125 Z M 14.234375 -11.3125 C 13.066406 -11.300781 11.941406 -11.234375 10.859375 -11.109375 C 9.773438 -10.992188 8.816406 -10.742188 7.984375 -10.359375 C 7.148438 -9.972656 6.484375 -9.421875 5.984375 -8.703125 C 5.492188 -7.984375 5.25 -7.035156 5.25 -5.859375 C 5.25 -4.335938 5.628906 -3.175781 6.390625 -2.375 C 7.148438 -1.570312 8.203125 -1.171875 9.546875 -1.171875 C 10.160156 -1.171875 10.722656 -1.257812 11.234375 -1.4375 C 11.742188 -1.613281 12.191406 -1.832031 12.578125 -2.09375 C 12.972656 -2.351562 13.304688 -2.640625 13.578125 -2.953125 C 13.847656 -3.273438 14.054688 -3.585938 14.203125 -3.890625 C 14.222656 -4.367188 14.234375 -4.90625 14.234375 -5.5 C 14.234375 -6.101562 14.234375 -6.785156 14.234375 -7.546875 Z M 14.234375 -11.3125 "/></g></g></g><g fill="#000000" fill-opacity="1"><g transform="translate(145.217803, 69.676877)"><g><path d="M 11.78125 -20.125 C 12.3125 -20.125 12.835938 -20.078125 13.359375 -19.984375 C 13.890625 -19.898438 14.40625 -19.773438 14.90625 -19.609375 C 15.414062 -19.441406 15.894531 -19.234375 16.34375 -18.984375 C 16.789062 -18.742188 17.195312 -18.46875 17.5625 -18.15625 L 17.5625 -21.328125 C 17.5625 -22.421875 17.546875 -23.375 17.515625 -24.1875 C 17.492188 -25.007812 17.457031 -25.71875 17.40625 -26.3125 C 17.351562 -26.90625 17.296875 -27.398438 17.234375 -27.796875 C 17.171875 -28.191406 17.097656 -28.523438 17.015625 -28.796875 L 17.015625 -28.875 L 21.484375 -28.875 L 21.484375 -28.796875 C 21.398438 -28.523438 21.320312 -28.191406 21.25 -27.796875 C 21.1875 -27.398438 21.128906 -26.90625 21.078125 -26.3125 C 21.035156 -25.71875 21 -25.007812 20.96875 -24.1875 C 20.9375 -23.375 20.921875 -22.421875 20.921875 -21.328125 L 20.921875 -7.546875 C 20.921875 -6.453125 20.9375 -5.492188 20.96875 -4.671875 C 21 -3.859375 21.035156 -3.15625 21.078125 -2.5625 C 21.128906 -1.976562 21.1875 -1.484375 21.25 -1.078125 C 21.320312 -0.679688 21.398438 -0.347656 21.484375 -0.078125 L 21.484375 0 L 17.21875 0 L 17.21875 -0.078125 C 17.25 -0.179688 17.273438 -0.332031 17.296875 -0.53125 C 17.328125 -0.726562 17.363281 -0.976562 17.40625 -1.28125 C 16.75 -0.863281 15.921875 -0.488281 14.921875 -0.15625 C 13.929688 0.175781 12.78125 0.34375 11.46875 0.34375 C 9.9375 0.34375 8.546875 0.109375 7.296875 -0.359375 C 6.046875 -0.835938 4.976562 -1.519531 4.09375 -2.40625 C 3.21875 -3.300781 2.539062 -4.378906 2.0625 -5.640625 C 1.59375 -6.910156 1.359375 -8.335938 1.359375 -9.921875 C 1.359375 -11.378906 1.613281 -12.726562 2.125 -13.96875 C 2.632812 -15.21875 3.351562 -16.296875 4.28125 -17.203125 C 5.207031 -18.117188 6.304688 -18.832031 7.578125 -19.34375 C 8.859375 -19.863281 10.257812 -20.125 11.78125 -20.125 Z M 17.5625 -14.765625 C 17.039062 -16.109375 16.300781 -17.101562 15.34375 -17.75 C 14.382812 -18.394531 13.304688 -18.71875 12.109375 -18.71875 C 11.109375 -18.71875 10.179688 -18.539062 9.328125 -18.1875 C 8.484375 -17.832031 7.753906 -17.316406 7.140625 -16.640625 C 6.535156 -15.972656 6.0625 -15.15625 5.71875 -14.1875 C 5.382812 -13.21875 5.21875 -12.113281 5.21875 -10.875 C 5.21875 -9.488281 5.367188 -8.195312 5.671875 -7 C 5.984375 -5.800781 6.4375 -4.757812 7.03125 -3.875 C 7.632812 -2.988281 8.378906 -2.296875 9.265625 -1.796875 C 10.160156 -1.304688 11.1875 -1.0625 12.34375 -1.0625 C 12.945312 -1.0625 13.515625 -1.128906 14.046875 -1.265625 C 14.578125 -1.410156 15.0625 -1.59375 15.5 -1.8125 C 15.9375 -2.03125 16.320312 -2.269531 16.65625 -2.53125 C 16.988281 -2.800781 17.265625 -3.066406 17.484375 -3.328125 C 17.503906 -3.878906 17.519531 -4.507812 17.53125 -5.21875 C 17.550781 -5.925781 17.5625 -6.703125 17.5625 -7.546875 Z M 17.5625 -14.765625 "/></g></g></g><g fill="#000000" fill-opacity="1"><g transform="translate(169.587016, 69.676877)"><g><path d="M 25.171875 -23.453125 L 25 -23.375 C 23.988281 -24.300781 22.78125 -25.039062 21.375 -25.59375 C 19.96875 -26.144531 18.421875 -26.421875 16.734375 -26.421875 C 15.109375 -26.421875 13.617188 -26.164062 12.265625 -25.65625 C 10.910156 -25.15625 9.75 -24.421875 8.78125 -23.453125 C 7.8125 -22.484375 7.054688 -21.296875 6.515625 -19.890625 C 5.972656 -18.492188 5.703125 -16.898438 5.703125 -15.109375 C 5.703125 -13.140625 5.957031 -11.300781 6.46875 -9.59375 C 6.988281 -7.882812 7.753906 -6.40625 8.765625 -5.15625 C 9.785156 -3.90625 11.054688 -2.921875 12.578125 -2.203125 C 14.109375 -1.492188 15.890625 -1.140625 17.921875 -1.140625 C 18.660156 -1.140625 19.394531 -1.21875 20.125 -1.375 C 20.863281 -1.53125 21.570312 -1.757812 22.25 -2.0625 C 22.925781 -2.363281 23.5625 -2.726562 24.15625 -3.15625 C 24.757812 -3.59375 25.300781 -4.085938 25.78125 -4.640625 L 26 -4.5 L 24.453125 -0.5625 C 23.484375 -0.1875 22.414062 0.0976562 21.25 0.296875 C 20.09375 0.492188 18.921875 0.59375 17.734375 0.59375 C 15.347656 0.59375 13.164062 0.25 11.1875 -0.4375 C 9.21875 -1.125 7.519531 -2.097656 6.09375 -3.359375 C 4.664062 -4.617188 3.554688 -6.132812 2.765625 -7.90625 C 1.972656 -9.675781 1.578125 -11.644531 1.578125 -13.8125 C 1.578125 -15.03125 1.734375 -16.234375 2.046875 -17.421875 C 2.367188 -18.609375 2.832031 -19.734375 3.4375 -20.796875 C 4.039062 -21.867188 4.785156 -22.851562 5.671875 -23.75 C 6.566406 -24.644531 7.582031 -25.421875 8.71875 -26.078125 C 9.863281 -26.734375 11.117188 -27.242188 12.484375 -27.609375 C 13.859375 -27.984375 15.34375 -28.171875 16.9375 -28.171875 C 19.425781 -28.171875 21.734375 -27.789062 23.859375 -27.03125 Z M 25.171875 -23.453125 "/></g></g></g><g fill="#000000" fill-opacity="1"><g transform="translate(196.834367, 69.676877)"><g><path d="M 9.171875 -0.234375 L 2.375 -15.109375 C 2.132812 -15.671875 1.867188 -16.210938 1.578125 -16.734375 C 1.296875 -17.253906 1.03125 -17.71875 0.78125 -18.125 C 0.53125 -18.539062 0.304688 -18.890625 0.109375 -19.171875 C -0.078125 -19.453125 -0.203125 -19.628906 -0.265625 -19.703125 L -0.265625 -19.78125 L 4.796875 -19.78125 L 4.796875 -19.703125 C 4.765625 -19.640625 4.742188 -19.539062 4.734375 -19.40625 C 4.722656 -19.28125 4.71875 -19.164062 4.71875 -19.0625 C 4.71875 -18.664062 4.773438 -18.222656 4.890625 -17.734375 C 5.015625 -17.253906 5.242188 -16.65625 5.578125 -15.9375 L 10.921875 -4.34375 L 15.78125 -15.78125 C 15.988281 -16.257812 16.195312 -16.78125 16.40625 -17.34375 C 16.625 -17.914062 16.734375 -18.488281 16.734375 -19.0625 C 16.734375 -19.226562 16.71875 -19.363281 16.6875 -19.46875 C 16.664062 -19.582031 16.640625 -19.660156 16.609375 -19.703125 L 16.609375 -19.78125 L 20.09375 -19.78125 L 20.09375 -19.703125 C 19.863281 -19.460938 19.570312 -19.03125 19.21875 -18.40625 C 18.863281 -17.78125 18.484375 -16.992188 18.078125 -16.046875 L 8.859375 5.890625 C 8.660156 6.367188 8.453125 6.890625 8.234375 7.453125 C 8.023438 8.023438 7.921875 8.597656 7.921875 9.171875 C 7.921875 9.335938 7.929688 9.472656 7.953125 9.578125 C 7.984375 9.691406 8.007812 9.769531 8.03125 9.8125 L 8.03125 9.890625 L 4.421875 9.890625 L 4.421875 9.8125 C 4.671875 9.570312 4.972656 9.144531 5.328125 8.53125 C 5.679688 7.914062 6.054688 7.144531 6.453125 6.21875 Z M 9.171875 -0.234375 "/></g></g></g><g fill="#000000" fill-opacity="1"><g transform="translate(217.127814, 69.676877)"><g><path d="M 19.03125 -4.109375 L 17.59375 -0.671875 C 17.25 -0.515625 16.847656 -0.375 16.390625 -0.25 C 15.941406 -0.125 15.476562 -0.015625 15 0.078125 C 14.519531 0.171875 14.035156 0.238281 13.546875 0.28125 C 13.054688 0.320312 12.59375 0.34375 12.15625 0.34375 C 10.59375 0.34375 9.148438 0.113281 7.828125 -0.34375 C 6.515625 -0.800781 5.375 -1.46875 4.40625 -2.34375 C 3.445312 -3.21875 2.695312 -4.289062 2.15625 -5.5625 C 1.625 -6.832031 1.359375 -8.285156 1.359375 -9.921875 C 1.359375 -11.378906 1.632812 -12.726562 2.1875 -13.96875 C 2.75 -15.21875 3.53125 -16.296875 4.53125 -17.203125 C 5.53125 -18.117188 6.703125 -18.832031 8.046875 -19.34375 C 9.398438 -19.863281 10.867188 -20.125 12.453125 -20.125 C 13.179688 -20.125 13.957031 -20.0625 14.78125 -19.9375 C 15.601562 -19.820312 16.335938 -19.664062 16.984375 -19.46875 L 18.359375 -16.1875 L 18.125 -16.046875 C 17.800781 -16.453125 17.414062 -16.816406 16.96875 -17.140625 C 16.519531 -17.472656 16.03125 -17.753906 15.5 -17.984375 C 14.96875 -18.210938 14.40625 -18.390625 13.8125 -18.515625 C 13.21875 -18.648438 12.613281 -18.71875 12 -18.71875 C 10.988281 -18.71875 10.070312 -18.539062 9.25 -18.1875 C 8.425781 -17.832031 7.71875 -17.316406 7.125 -16.640625 C 6.53125 -15.972656 6.066406 -15.15625 5.734375 -14.1875 C 5.410156 -13.21875 5.25 -12.113281 5.25 -10.875 C 5.25 -9.488281 5.40625 -8.195312 5.71875 -7 C 6.039062 -5.800781 6.515625 -4.757812 7.140625 -3.875 C 7.765625 -2.988281 8.550781 -2.296875 9.5 -1.796875 C 10.445312 -1.304688 11.554688 -1.0625 12.828125 -1.0625 C 13.421875 -1.0625 14.007812 -1.132812 14.59375 -1.28125 C 15.175781 -1.425781 15.726562 -1.640625 16.25 -1.921875 C 16.769531 -2.203125 17.25 -2.535156 17.6875 -2.921875 C 18.132812 -3.304688 18.503906 -3.742188 18.796875 -4.234375 Z M 19.03125 -4.109375 "/></g></g></g><g fill="#000000" fill-opacity="1"><g transform="translate(237.575791, 69.676877)"><g><path d="M 3.09375 -21.328125 C 3.09375 -22.421875 3.078125 -23.375 3.046875 -24.1875 C 3.015625 -25.007812 2.972656 -25.71875 2.921875 -26.3125 C 2.878906 -26.90625 2.820312 -27.398438 2.75 -27.796875 C 2.675781 -28.191406 2.601562 -28.523438 2.53125 -28.796875 L 2.53125 -28.875 L 7 -28.875 L 7 -28.796875 C 6.914062 -28.523438 6.84375 -28.191406 6.78125 -27.796875 C 6.71875 -27.398438 6.660156 -26.90625 6.609375 -26.3125 C 6.554688 -25.71875 6.515625 -25.007812 6.484375 -24.1875 C 6.460938 -23.375 6.453125 -22.421875 6.453125 -21.328125 L 6.453125 -7.546875 C 6.453125 -6.453125 6.460938 -5.492188 6.484375 -4.671875 C 6.515625 -3.859375 6.554688 -3.15625 6.609375 -2.5625 C 6.660156 -1.976562 6.71875 -1.484375 6.78125 -1.078125 C 6.84375 -0.679688 6.914062 -0.347656 7 -0.078125 L 7 0 L 2.53125 0 L 2.53125 -0.078125 C 2.601562 -0.347656 2.675781 -0.679688 2.75 -1.078125 C 2.820312 -1.484375 2.878906 -1.976562 2.921875 -2.5625 C 2.972656 -3.15625 3.015625 -3.859375 3.046875 -4.671875 C 3.078125 -5.492188 3.09375 -6.453125 3.09375 -7.546875 Z M 3.09375 -21.328125 "/></g></g></g><g fill="#000000" fill-opacity="1"><g transform="translate(247.59291, 69.676877)"><g><path d="M 11.625 0.34375 C 10.195312 0.34375 8.859375 0.117188 7.609375 -0.328125 C 6.359375 -0.773438 5.269531 -1.429688 4.34375 -2.296875 C 3.414062 -3.171875 2.6875 -4.25 2.15625 -5.53125 C 1.625 -6.8125 1.359375 -8.273438 1.359375 -9.921875 C 1.359375 -11.378906 1.601562 -12.726562 2.09375 -13.96875 C 2.582031 -15.21875 3.253906 -16.296875 4.109375 -17.203125 C 4.972656 -18.117188 5.976562 -18.832031 7.125 -19.34375 C 8.28125 -19.863281 9.53125 -20.125 10.875 -20.125 C 12.195312 -20.125 13.425781 -19.894531 14.5625 -19.4375 C 15.695312 -18.976562 16.675781 -18.316406 17.5 -17.453125 C 18.332031 -16.585938 18.988281 -15.515625 19.46875 -14.234375 C 19.957031 -12.953125 20.222656 -11.492188 20.265625 -9.859375 C 18.804688 -9.878906 17.347656 -9.894531 15.890625 -9.90625 C 14.441406 -9.914062 12.929688 -9.921875 11.359375 -9.921875 C 10.234375 -9.921875 9.140625 -9.914062 8.078125 -9.90625 C 7.015625 -9.894531 6.0625 -9.878906 5.21875 -9.859375 C 5.289062 -8.515625 5.5 -7.300781 5.84375 -6.21875 C 6.1875 -5.132812 6.65625 -4.207031 7.25 -3.4375 C 7.851562 -2.675781 8.582031 -2.085938 9.4375 -1.671875 C 10.289062 -1.265625 11.257812 -1.0625 12.34375 -1.0625 C 13.09375 -1.0625 13.796875 -1.144531 14.453125 -1.3125 C 15.117188 -1.488281 15.722656 -1.734375 16.265625 -2.046875 C 16.804688 -2.359375 17.289062 -2.722656 17.71875 -3.140625 C 18.144531 -3.554688 18.503906 -4.007812 18.796875 -4.5 L 19.03125 -4.390625 L 17.59375 -0.953125 C 16.90625 -0.585938 16.078125 -0.28125 15.109375 -0.03125 C 14.140625 0.21875 12.976562 0.34375 11.625 0.34375 Z M 9.0625 -11.4375 C 10.34375 -11.4375 11.628906 -11.4375 12.921875 -11.4375 C 14.222656 -11.445312 15.398438 -11.472656 16.453125 -11.515625 C 16.335938 -12.628906 16.117188 -13.628906 15.796875 -14.515625 C 15.472656 -15.410156 15.0625 -16.164062 14.5625 -16.78125 C 14.0625 -17.40625 13.46875 -17.882812 12.78125 -18.21875 C 12.101562 -18.550781 11.351562 -18.71875 10.53125 -18.71875 C 9.78125 -18.71875 9.09375 -18.550781 8.46875 -18.21875 C 7.84375 -17.894531 7.296875 -17.421875 6.828125 -16.796875 C 6.367188 -16.179688 6 -15.425781 5.71875 -14.53125 C 5.4375 -13.632812 5.269531 -12.613281 5.21875 -11.46875 C 5.789062 -11.445312 6.398438 -11.4375 7.046875 -11.4375 C 7.691406 -11.4375 8.363281 -11.4375 9.0625 -11.4375 Z M 9.0625 -11.4375 "/></g></g></g><g fill="#484848" fill-opacity="1"><g transform="translate(65.923618, 94.999796)"><g><path d="M 0.96875 0 L 0.96875 -9.171875 L 3.9375 -9.171875 C 4.644531 -9.171875 5.226562 -9.050781 5.6875 -8.8125 C 6.144531 -8.582031 6.484375 -8.257812 6.703125 -7.84375 C 6.921875 -7.4375 7.03125 -6.984375 7.03125 -6.484375 C 7.03125 -5.910156 6.875 -5.390625 6.5625 -4.921875 C 6.25 -4.460938 5.765625 -4.140625 5.109375 -3.953125 L 7.125 0 L 5.828125 0 L 3.953125 -3.78125 L 2.078125 -3.78125 L 2.078125 0 Z M 2.078125 -4.65625 L 3.859375 -4.65625 C 4.566406 -4.65625 5.082031 -4.820312 5.40625 -5.15625 C 5.726562 -5.5 5.890625 -5.9375 5.890625 -6.46875 C 5.890625 -7.007812 5.726562 -7.441406 5.40625 -7.765625 C 5.082031 -8.085938 4.5625 -8.25 3.84375 -8.25 L 2.078125 -8.25 Z M 2.078125 -4.65625 "/></g></g></g><g fill="#484848" fill-opacity="1"><g transform="translate(77.681934, 94.999796)"><g><path d="M 0.96875 0 L 0.96875 -9.171875 L 6.640625 -9.171875 L 6.640625 -8.265625 L 2.078125 -8.265625 L 2.078125 -5.078125 L 6.25 -5.078125 L 6.25 -4.1875 L 2.078125 -4.1875 L 2.078125 -0.90625 L 6.640625 -0.90625 L 6.640625 0 Z M 0.96875 0 "/></g></g></g><g fill="#484848" fill-opacity="1"><g transform="translate(89.060212, 94.999796)"><g><path d="M 3.125 0 L 3.125 -8.265625 L 0.375 -8.265625 L 0.375 -9.171875 L 6.96875 -9.171875 L 6.96875 -8.265625 L 4.21875 -8.265625 L 4.21875 0 Z M 3.125 0 "/></g></g></g><g fill="#484848" fill-opacity="1"><g transform="translate(100.386077, 94.999796)"><g><path d="M 0.96875 0 L 0.96875 -9.171875 L 2.078125 -9.171875 L 2.078125 -5.125 L 6.828125 -5.125 L 6.828125 -9.171875 L 7.9375 -9.171875 L 7.9375 0 L 6.828125 0 L 6.828125 -4.21875 L 2.078125 -4.21875 L 2.078125 0 Z M 0.96875 0 "/></g></g></g><g fill="#484848" fill-opacity="1"><g transform="translate(113.271411, 94.999796)"><g><path d="M 0.96875 0 L 0.96875 -9.171875 L 3.9375 -9.171875 C 4.644531 -9.171875 5.226562 -9.050781 5.6875 -8.8125 C 6.144531 -8.582031 6.484375 -8.257812 6.703125 -7.84375 C 6.921875 -7.4375 7.03125 -6.984375 7.03125 -6.484375 C 7.03125 -5.910156 6.875 -5.390625 6.5625 -4.921875 C 6.25 -4.460938 5.765625 -4.140625 5.109375 -3.953125 L 7.125 0 L 5.828125 0 L 3.953125 -3.78125 L 2.078125 -3.78125 L 2.078125 0 Z M 2.078125 -4.65625 L 3.859375 -4.65625 C 4.566406 -4.65625 5.082031 -4.820312 5.40625 -5.15625 C 5.726562 -5.5 5.890625 -5.9375 5.890625 -6.46875 C 5.890625 -7.007812 5.726562 -7.441406 5.40625 -7.765625 C 5.082031 -8.085938 4.5625 -8.25 3.84375 -8.25 L 2.078125 -8.25 Z M 2.078125 -4.65625 "/></g></g></g><g fill="#484848" fill-opacity="1"><g transform="translate(125.029724, 94.999796)"><g><path d="M 0.96875 0 L 0.96875 -9.171875 L 6.640625 -9.171875 L 6.640625 -8.265625 L 2.078125 -8.265625 L 2.078125 -5.078125 L 6.25 -5.078125 L 6.25 -4.1875 L 2.078125 -4.1875 L 2.078125 -0.90625 L 6.640625 -0.90625 L 6.640625 0 Z M 0.96875 0 "/></g></g></g><g fill="#484848" fill-opacity="1"><g transform="translate(136.407999, 94.999796)"><g><path d="M 0.390625 0 L 3.78125 -9.171875 L 4.9375 -9.171875 L 8.3125 0 L 7.140625 0 L 6.3125 -2.359375 L 2.40625 -2.359375 L 1.546875 0 Z M 2.734375 -3.25 L 5.984375 -3.25 L 4.359375 -7.78125 Z M 2.734375 -3.25 "/></g></g></g><g fill="#484848" fill-opacity="1"><g transform="translate(149.096764, 94.999796)"><g><path d="M 0.96875 0 L 0.96875 -9.171875 L 3.78125 -9.171875 C 5.40625 -9.171875 6.597656 -8.757812 7.359375 -7.9375 C 8.128906 -7.125 8.515625 -6 8.515625 -4.5625 C 8.515625 -3.15625 8.128906 -2.039062 7.359375 -1.21875 C 6.597656 -0.40625 5.40625 0 3.78125 0 Z M 2.078125 -0.921875 L 3.765625 -0.921875 C 4.648438 -0.921875 5.359375 -1.066406 5.890625 -1.359375 C 6.421875 -1.648438 6.800781 -2.066406 7.03125 -2.609375 C 7.257812 -3.160156 7.375 -3.8125 7.375 -4.5625 C 7.375 -5.332031 7.257812 -5.992188 7.03125 -6.546875 C 6.800781 -7.097656 6.421875 -7.519531 5.890625 -7.8125 C 5.359375 -8.113281 4.648438 -8.265625 3.765625 -8.265625 L 2.078125 -8.265625 Z M 2.078125 -0.921875 "/></g></g></g><g fill="#484848" fill-opacity="1"><g transform="translate(169.664808, 94.999796)"><g><path d="M 3.25 0 L 3.25 -3.484375 L 0.265625 -9.171875 L 1.5 -9.171875 L 3.796875 -4.53125 L 6.09375 -9.171875 L 7.328125 -9.171875 L 4.359375 -3.484375 L 4.359375 0 Z M 3.25 0 "/></g></g></g><g fill="#484848" fill-opacity="1"><g transform="translate(181.23966, 94.999796)"><g><path d="M 5.140625 0.15625 C 4.234375 0.15625 3.441406 -0.0390625 2.765625 -0.4375 C 2.085938 -0.832031 1.554688 -1.390625 1.171875 -2.109375 C 0.796875 -2.828125 0.609375 -3.65625 0.609375 -4.59375 C 0.609375 -5.519531 0.796875 -6.335938 1.171875 -7.046875 C 1.554688 -7.765625 2.085938 -8.320312 2.765625 -8.71875 C 3.441406 -9.125 4.234375 -9.328125 5.140625 -9.328125 C 6.046875 -9.328125 6.835938 -9.125 7.515625 -8.71875 C 8.191406 -8.320312 8.71875 -7.765625 9.09375 -7.046875 C 9.46875 -6.335938 9.65625 -5.519531 9.65625 -4.59375 C 9.65625 -3.65625 9.46875 -2.828125 9.09375 -2.109375 C 8.71875 -1.390625 8.191406 -0.832031 7.515625 -0.4375 C 6.835938 -0.0390625 6.046875 0.15625 5.140625 0.15625 Z M 5.140625 -0.8125 C 5.804688 -0.8125 6.394531 -0.960938 6.90625 -1.265625 C 7.425781 -1.566406 7.828125 -2 8.109375 -2.5625 C 8.390625 -3.125 8.53125 -3.800781 8.53125 -4.59375 C 8.53125 -5.375 8.390625 -6.046875 8.109375 -6.609375 C 7.828125 -7.171875 7.425781 -7.597656 6.90625 -7.890625 C 6.394531 -8.191406 5.804688 -8.34375 5.140625 -8.34375 C 4.460938 -8.34375 3.867188 -8.191406 3.359375 -7.890625 C 2.847656 -7.597656 2.453125 -7.171875 2.171875 -6.609375 C 1.890625 -6.046875 1.75 -5.375 1.75 -4.59375 C 1.75 -3.800781 1.890625 -3.125 2.171875 -2.5625 C 2.453125 -2 2.847656 -1.566406 3.359375 -1.265625 C 3.867188 -0.960938 4.460938 -0.8125 5.140625 -0.8125 Z M 5.140625 -0.8125 "/></g></g></g><g fill="#484848" fill-opacity="1"><g transform="translate(195.501011, 94.999796)"><g><path d="M 4.28125 0.15625 C 3.65625 0.15625 3.085938 0.03125 2.578125 -0.21875 C 2.066406 -0.46875 1.65625 -0.851562 1.34375 -1.375 C 1.039062 -1.894531 0.890625 -2.5625 0.890625 -3.375 L 0.890625 -9.171875 L 2 -9.171875 L 2 -3.375 C 2 -2.476562 2.210938 -1.828125 2.640625 -1.421875 C 3.066406 -1.023438 3.625 -0.828125 4.3125 -0.828125 C 5 -0.828125 5.550781 -1.023438 5.96875 -1.421875 C 6.394531 -1.828125 6.609375 -2.476562 6.609375 -3.375 L 6.609375 -9.171875 L 7.703125 -9.171875 L 7.703125 -3.375 C 7.703125 -2.5625 7.550781 -1.894531 7.25 -1.375 C 6.945312 -0.851562 6.535156 -0.46875 6.015625 -0.21875 C 5.503906 0.03125 4.925781 0.15625 4.28125 0.15625 Z M 4.28125 0.15625 "/></g></g></g><g fill="#484848" fill-opacity="1"><g transform="translate(208.08494, 94.999796)"><g><path d="M 0.96875 0 L 0.96875 -9.171875 L 3.9375 -9.171875 C 4.644531 -9.171875 5.226562 -9.050781 5.6875 -8.8125 C 6.144531 -8.582031 6.484375 -8.257812 6.703125 -7.84375 C 6.921875 -7.4375 7.03125 -6.984375 7.03125 -6.484375 C 7.03125 -5.910156 6.875 -5.390625 6.5625 -4.921875 C 6.25 -4.460938 5.765625 -4.140625 5.109375 -3.953125 L 7.125 0 L 5.828125 0 L 3.953125 -3.78125 L 2.078125 -3.78125 L 2.078125 0 Z M 2.078125 -4.65625 L 3.859375 -4.65625 C 4.566406 -4.65625 5.082031 -4.820312 5.40625 -5.15625 C 5.726562 -5.5 5.890625 -5.9375 5.890625 -6.46875 C 5.890625 -7.007812 5.726562 -7.441406 5.40625 -7.765625 C 5.082031 -8.085938 4.5625 -8.25 3.84375 -8.25 L 2.078125 -8.25 Z M 2.078125 -4.65625 "/></g></g></g><g fill="#484848" fill-opacity="1"><g transform="translate(227.303175, 94.999796)"><g><path d="M 3.890625 0.15625 C 3.222656 0.15625 2.640625 0.0351562 2.140625 -0.203125 C 1.640625 -0.453125 1.253906 -0.796875 0.984375 -1.234375 C 0.710938 -1.671875 0.578125 -2.175781 0.578125 -2.75 L 1.734375 -2.75 C 1.734375 -2.394531 1.816406 -2.066406 1.984375 -1.765625 C 2.148438 -1.460938 2.390625 -1.222656 2.703125 -1.046875 C 3.023438 -0.867188 3.421875 -0.78125 3.890625 -0.78125 C 4.515625 -0.78125 4.992188 -0.925781 5.328125 -1.21875 C 5.671875 -1.519531 5.84375 -1.890625 5.84375 -2.328125 C 5.84375 -2.703125 5.765625 -3 5.609375 -3.21875 C 5.453125 -3.4375 5.238281 -3.613281 4.96875 -3.75 C 4.707031 -3.894531 4.40625 -4.019531 4.0625 -4.125 C 3.71875 -4.226562 3.351562 -4.347656 2.96875 -4.484375 C 2.257812 -4.722656 1.734375 -5.023438 1.390625 -5.390625 C 1.054688 -5.753906 0.890625 -6.226562 0.890625 -6.8125 C 0.878906 -7.300781 0.992188 -7.734375 1.234375 -8.109375 C 1.472656 -8.492188 1.804688 -8.789062 2.234375 -9 C 2.671875 -9.21875 3.1875 -9.328125 3.78125 -9.328125 C 4.363281 -9.328125 4.867188 -9.21875 5.296875 -9 C 5.734375 -8.78125 6.070312 -8.476562 6.3125 -8.09375 C 6.550781 -7.71875 6.675781 -7.285156 6.6875 -6.796875 L 5.53125 -6.796875 C 5.53125 -7.046875 5.460938 -7.296875 5.328125 -7.546875 C 5.203125 -7.796875 5.003906 -8 4.734375 -8.15625 C 4.472656 -8.3125 4.140625 -8.390625 3.734375 -8.390625 C 3.234375 -8.398438 2.820312 -8.269531 2.5 -8 C 2.1875 -7.738281 2.03125 -7.378906 2.03125 -6.921875 C 2.03125 -6.523438 2.140625 -6.222656 2.359375 -6.015625 C 2.585938 -5.804688 2.898438 -5.632812 3.296875 -5.5 C 3.703125 -5.363281 4.164062 -5.207031 4.6875 -5.03125 C 5.125 -4.875 5.515625 -4.691406 5.859375 -4.484375 C 6.210938 -4.273438 6.488281 -4.003906 6.6875 -3.671875 C 6.882812 -3.335938 6.984375 -2.914062 6.984375 -2.40625 C 6.984375 -1.96875 6.867188 -1.550781 6.640625 -1.15625 C 6.421875 -0.769531 6.078125 -0.453125 5.609375 -0.203125 C 5.148438 0.0351562 4.578125 0.15625 3.890625 0.15625 Z M 3.890625 0.15625 "/></g></g></g><g fill="#484848" fill-opacity="1"><g transform="translate(238.864922, 94.999796)"><g><path d="M 3.125 0 L 3.125 -8.265625 L 0.375 -8.265625 L 0.375 -9.171875 L 6.96875 -9.171875 L 6.96875 -8.265625 L 4.21875 -8.265625 L 4.21875 0 Z M 3.125 0 "/></g></g></g><g fill="#484848" fill-opacity="1"><g transform="translate(250.190785, 94.999796)"><g><path d="M 5.140625 0.15625 C 4.234375 0.15625 3.441406 -0.0390625 2.765625 -0.4375 C 2.085938 -0.832031 1.554688 -1.390625 1.171875 -2.109375 C 0.796875 -2.828125 0.609375 -3.65625 0.609375 -4.59375 C 0.609375 -5.519531 0.796875 -6.335938 1.171875 -7.046875 C 1.554688 -7.765625 2.085938 -8.320312 2.765625 -8.71875 C 3.441406 -9.125 4.234375 -9.328125 5.140625 -9.328125 C 6.046875 -9.328125 6.835938 -9.125 7.515625 -8.71875 C 8.191406 -8.320312 8.71875 -7.765625 9.09375 -7.046875 C 9.46875 -6.335938 9.65625 -5.519531 9.65625 -4.59375 C 9.65625 -3.65625 9.46875 -2.828125 9.09375 -2.109375 C 8.71875 -1.390625 8.191406 -0.832031 7.515625 -0.4375 C 6.835938 -0.0390625 6.046875 0.15625 5.140625 0.15625 Z M 5.140625 -0.8125 C 5.804688 -0.8125 6.394531 -0.960938 6.90625 -1.265625 C 7.425781 -1.566406 7.828125 -2 8.109375 -2.5625 C 8.390625 -3.125 8.53125 -3.800781 8.53125 -4.59375 C 8.53125 -5.375 8.390625 -6.046875 8.109375 -6.609375 C 7.828125 -7.171875 7.425781 -7.597656 6.90625 -7.890625 C 6.394531 -8.191406 5.804688 -8.34375 5.140625 -8.34375 C 4.460938 -8.34375 3.867188 -8.191406 3.359375 -7.890625 C 2.847656 -7.597656 2.453125 -7.171875 2.171875 -6.609375 C 1.890625 -6.046875 1.75 -5.375 1.75 -4.59375 C 1.75 -3.800781 1.890625 -3.125 2.171875 -2.5625 C 2.453125 -2 2.847656 -1.566406 3.359375 -1.265625 C 3.867188 -0.960938 4.460938 -0.8125 5.140625 -0.8125 Z M 5.140625 -0.8125 "/></g></g></g><g fill="#484848" fill-opacity="1"><g transform="translate(264.452136, 94.999796)"><g><path d="M 0.96875 0 L 0.96875 -9.171875 L 3.9375 -9.171875 C 4.644531 -9.171875 5.226562 -9.050781 5.6875 -8.8125 C 6.144531 -8.582031 6.484375 -8.257812 6.703125 -7.84375 C 6.921875 -7.4375 7.03125 -6.984375 7.03125 -6.484375 C 7.03125 -5.910156 6.875 -5.390625 6.5625 -4.921875 C 6.25 -4.460938 5.765625 -4.140625 5.109375 -3.953125 L 7.125 0 L 5.828125 0 L 3.953125 -3.78125 L 2.078125 -3.78125 L 2.078125 0 Z M 2.078125 -4.65625 L 3.859375 -4.65625 C 4.566406 -4.65625 5.082031 -4.820312 5.40625 -5.15625 C 5.726562 -5.5 5.890625 -5.9375 5.890625 -6.46875 C 5.890625 -7.007812 5.726562 -7.441406 5.40625 -7.765625 C 5.082031 -8.085938 4.5625 -8.25 3.84375 -8.25 L 2.078125 -8.25 Z M 2.078125 -4.65625 "/></g></g></g><g fill="#484848" fill-opacity="1"><g transform="translate(276.21046, 94.999796)"><g><path d="M 3.25 0 L 3.25 -3.484375 L 0.265625 -9.171875 L 1.5 -9.171875 L 3.796875 -4.53125 L 6.09375 -9.171875 L 7.328125 -9.171875 L 4.359375 -3.484375 L 4.359375 0 Z M 3.25 0 "/></g></g></g></svg>