<svg xmlns="http://www.w3.org/2000/svg" xmlns:xlink="http://www.w3.org/1999/xlink" width="335" zoomAndPan="magnify" viewBox="0 0 251.25 78.749999" height="105" preserveAspectRatio="xMidYMid meet" version="1.0"><defs><g/><clipPath id="ac8926b73c"><path d="M 0.0234375 0 L 250.480469 0 L 250.480469 78.5 L 0.0234375 78.5 Z M 0.0234375 0 " clip-rule="nonzero"/></clipPath></defs><g clip-path="url(#ac8926b73c)"><path fill="#ffffff" d="M 0.0234375 0 L 250.480469 0 L 250.480469 78.5 L 0.0234375 78.5 Z M 0.0234375 0 " fill-opacity="1" fill-rule="nonzero"/></g><g fill="#f1e6d8" fill-opacity="1"><g transform="translate(8.997247, 46.139068)"><g><path d="M 10.03125 -25.984375 C 8.519531 -25.984375 7.148438 -25.914062 5.921875 -25.78125 C 4.703125 -25.644531 3.648438 -25.5 2.765625 -25.34375 C 1.734375 -25.144531 0.8125 -24.929688 0 -24.703125 L 0.5625 -27.828125 C 0.71875 -27.816406 0.945312 -27.804688 1.25 -27.796875 C 1.5625 -27.785156 1.90625 -27.769531 2.28125 -27.75 C 2.664062 -27.738281 3.066406 -27.726562 3.484375 -27.71875 C 3.898438 -27.71875 4.296875 -27.710938 4.671875 -27.703125 C 5.046875 -27.703125 5.375 -27.695312 5.65625 -27.6875 C 5.945312 -27.675781 6.160156 -27.671875 6.296875 -27.671875 L 17.3125 -27.671875 C 17.4375 -27.671875 17.644531 -27.675781 17.9375 -27.6875 C 18.226562 -27.695312 18.5625 -27.703125 18.9375 -27.703125 C 19.3125 -27.710938 19.707031 -27.71875 20.125 -27.71875 C 20.539062 -27.726562 20.9375 -27.738281 21.3125 -27.75 C 21.695312 -27.769531 22.039062 -27.785156 22.34375 -27.796875 C 22.65625 -27.804688 22.890625 -27.816406 23.046875 -27.828125 L 23.609375 -24.703125 C 22.785156 -24.929688 21.859375 -25.144531 20.828125 -25.34375 C 19.941406 -25.5 18.882812 -25.644531 17.65625 -25.78125 C 16.4375 -25.914062 15.066406 -25.984375 13.546875 -25.984375 L 13.546875 -7.546875 C 13.546875 -6.453125 13.5625 -5.492188 13.59375 -4.671875 C 13.625 -3.859375 13.660156 -3.15625 13.703125 -2.5625 C 13.753906 -1.96875 13.816406 -1.472656 13.890625 -1.078125 C 13.960938 -0.679688 14.035156 -0.347656 14.109375 -0.078125 L 14.109375 0 L 9.5 0 L 9.5 -0.078125 C 9.570312 -0.347656 9.640625 -0.679688 9.703125 -1.078125 C 9.773438 -1.472656 9.832031 -1.96875 9.875 -2.5625 C 9.925781 -3.15625 9.960938 -3.859375 9.984375 -4.671875 C 10.015625 -5.492188 10.03125 -6.453125 10.03125 -7.546875 Z M 10.03125 -25.984375 "/></g></g></g><g fill="#f1e6d8" fill-opacity="1"><g transform="translate(33.078214, 46.139068)"><g><path d="M 16.25 -13.015625 C 16.25 -14.710938 15.90625 -15.957031 15.21875 -16.75 C 14.539062 -17.550781 13.628906 -17.953125 12.484375 -17.953125 C 12.066406 -17.953125 11.59375 -17.863281 11.0625 -17.6875 C 10.539062 -17.519531 10.003906 -17.285156 9.453125 -16.984375 C 8.910156 -16.691406 8.367188 -16.347656 7.828125 -15.953125 C 7.296875 -15.554688 6.796875 -15.140625 6.328125 -14.703125 L 6.328125 -7.546875 C 6.328125 -6.453125 6.335938 -5.492188 6.359375 -4.671875 C 6.390625 -3.859375 6.429688 -3.15625 6.484375 -2.5625 C 6.535156 -1.96875 6.59375 -1.472656 6.65625 -1.078125 C 6.71875 -0.679688 6.789062 -0.347656 6.875 -0.078125 L 6.875 0 L 2.40625 0 L 2.40625 -0.078125 C 2.488281 -0.347656 2.5625 -0.679688 2.625 -1.078125 C 2.695312 -1.472656 2.753906 -1.96875 2.796875 -2.5625 C 2.847656 -3.15625 2.890625 -3.859375 2.921875 -4.671875 C 2.953125 -5.492188 2.96875 -6.453125 2.96875 -7.546875 L 2.96875 -21.3125 C 2.96875 -22.40625 2.953125 -23.359375 2.921875 -24.171875 C 2.890625 -24.992188 2.847656 -25.695312 2.796875 -26.28125 C 2.753906 -26.875 2.695312 -27.367188 2.625 -27.765625 C 2.5625 -28.171875 2.488281 -28.507812 2.40625 -28.78125 L 2.40625 -28.859375 L 6.875 -28.859375 L 6.875 -28.78125 C 6.789062 -28.507812 6.71875 -28.171875 6.65625 -27.765625 C 6.59375 -27.367188 6.535156 -26.875 6.484375 -26.28125 C 6.429688 -25.695312 6.390625 -24.992188 6.359375 -24.171875 C 6.335938 -23.359375 6.328125 -22.40625 6.328125 -21.3125 L 6.328125 -16.375 C 6.847656 -16.832031 7.414062 -17.285156 8.03125 -17.734375 C 8.65625 -18.191406 9.300781 -18.597656 9.96875 -18.953125 C 10.644531 -19.316406 11.328125 -19.609375 12.015625 -19.828125 C 12.710938 -20.046875 13.398438 -20.15625 14.078125 -20.15625 C 15.078125 -20.15625 15.925781 -19.976562 16.625 -19.625 C 17.332031 -19.28125 17.90625 -18.820312 18.34375 -18.25 C 18.789062 -17.6875 19.113281 -17.039062 19.3125 -16.3125 C 19.507812 -15.59375 19.609375 -14.859375 19.609375 -14.109375 L 19.609375 -7.546875 C 19.609375 -6.453125 19.617188 -5.492188 19.640625 -4.671875 C 19.671875 -3.859375 19.710938 -3.15625 19.765625 -2.5625 C 19.816406 -1.96875 19.875 -1.472656 19.9375 -1.078125 C 20 -0.679688 20.070312 -0.347656 20.15625 -0.078125 L 20.15625 0 L 15.6875 0 L 15.6875 -0.078125 C 15.769531 -0.347656 15.84375 -0.679688 15.90625 -1.078125 C 15.976562 -1.472656 16.035156 -1.96875 16.078125 -2.5625 C 16.128906 -3.15625 16.171875 -3.859375 16.203125 -4.671875 C 16.234375 -5.492188 16.25 -6.453125 16.25 -7.546875 Z M 16.25 -13.015625 "/></g></g></g><g fill="#f1e6d8" fill-opacity="1"><g transform="translate(56.001054, 46.139068)"><g><path d="M 2.96875 -12.21875 C 2.96875 -13.3125 2.953125 -14.265625 2.921875 -15.078125 C 2.890625 -15.898438 2.847656 -16.609375 2.796875 -17.203125 C 2.753906 -17.796875 2.695312 -18.289062 2.625 -18.6875 C 2.5625 -19.082031 2.488281 -19.414062 2.40625 -19.6875 L 2.40625 -19.765625 L 6.875 -19.765625 L 6.875 -19.6875 C 6.769531 -19.394531 6.679688 -19.035156 6.609375 -18.609375 C 6.535156 -18.179688 6.484375 -17.632812 6.453125 -16.96875 C 6.921875 -17.363281 7.410156 -17.753906 7.921875 -18.140625 C 8.441406 -18.523438 8.972656 -18.863281 9.515625 -19.15625 C 10.054688 -19.457031 10.601562 -19.695312 11.15625 -19.875 C 11.71875 -20.0625 12.285156 -20.15625 12.859375 -20.15625 C 13.203125 -20.15625 13.503906 -20.140625 13.765625 -20.109375 C 14.023438 -20.078125 14.253906 -20.03125 14.453125 -19.96875 C 14.660156 -19.90625 14.847656 -19.835938 15.015625 -19.765625 C 15.179688 -19.703125 15.34375 -19.640625 15.5 -19.578125 L 14.546875 -15.890625 L 14.21875 -15.96875 C 14.070312 -16.53125 13.785156 -16.976562 13.359375 -17.3125 C 12.929688 -17.65625 12.351562 -17.828125 11.625 -17.828125 C 11.21875 -17.828125 10.796875 -17.753906 10.359375 -17.609375 C 9.921875 -17.472656 9.476562 -17.28125 9.03125 -17.03125 C 8.582031 -16.78125 8.128906 -16.488281 7.671875 -16.15625 C 7.222656 -15.832031 6.789062 -15.492188 6.375 -15.140625 C 6.34375 -14.765625 6.328125 -14.359375 6.328125 -13.921875 C 6.328125 -13.484375 6.328125 -13.019531 6.328125 -12.53125 L 6.328125 -7.546875 C 6.328125 -6.453125 6.335938 -5.492188 6.359375 -4.671875 C 6.390625 -3.859375 6.429688 -3.15625 6.484375 -2.5625 C 6.535156 -1.96875 6.59375 -1.472656 6.65625 -1.078125 C 6.71875 -0.679688 6.789062 -0.347656 6.875 -0.078125 L 6.875 0 L 2.40625 0 L 2.40625 -0.078125 C 2.488281 -0.347656 2.5625 -0.679688 2.625 -1.078125 C 2.695312 -1.472656 2.753906 -1.96875 2.796875 -2.5625 C 2.847656 -3.15625 2.890625 -3.859375 2.921875 -4.671875 C 2.953125 -5.492188 2.96875 -6.453125 2.96875 -7.546875 Z M 2.96875 -12.21875 "/></g></g></g><g fill="#f1e6d8" fill-opacity="1"><g transform="translate(71.975131, 46.139068)"><g><path d="M 11.625 0.34375 C 10.195312 0.34375 8.859375 0.117188 7.609375 -0.328125 C 6.359375 -0.773438 5.269531 -1.429688 4.34375 -2.296875 C 3.414062 -3.171875 2.679688 -4.25 2.140625 -5.53125 C 1.609375 -6.8125 1.34375 -8.273438 1.34375 -9.921875 C 1.34375 -11.378906 1.585938 -12.726562 2.078125 -13.96875 C 2.566406 -15.207031 3.242188 -16.28125 4.109375 -17.1875 C 4.972656 -18.101562 5.976562 -18.816406 7.125 -19.328125 C 8.28125 -19.847656 9.53125 -20.109375 10.875 -20.109375 C 12.195312 -20.109375 13.421875 -19.878906 14.546875 -19.421875 C 15.679688 -18.972656 16.664062 -18.3125 17.5 -17.4375 C 18.332031 -16.570312 18.988281 -15.5 19.46875 -14.21875 C 19.945312 -12.9375 20.207031 -11.476562 20.25 -9.84375 C 18.789062 -9.875 17.332031 -9.894531 15.875 -9.90625 C 14.425781 -9.914062 12.914062 -9.921875 11.34375 -9.921875 C 10.226562 -9.921875 9.140625 -9.914062 8.078125 -9.90625 C 7.015625 -9.894531 6.0625 -9.875 5.21875 -9.84375 C 5.289062 -8.507812 5.492188 -7.300781 5.828125 -6.21875 C 6.171875 -5.132812 6.640625 -4.207031 7.234375 -3.4375 C 7.835938 -2.675781 8.566406 -2.085938 9.421875 -1.671875 C 10.285156 -1.265625 11.253906 -1.0625 12.328125 -1.0625 C 13.078125 -1.0625 13.78125 -1.144531 14.4375 -1.3125 C 15.101562 -1.488281 15.707031 -1.734375 16.25 -2.046875 C 16.789062 -2.359375 17.273438 -2.722656 17.703125 -3.140625 C 18.128906 -3.554688 18.488281 -4.007812 18.78125 -4.5 L 19.015625 -4.375 L 17.578125 -0.953125 C 16.890625 -0.585938 16.0625 -0.28125 15.09375 -0.03125 C 14.125 0.21875 12.96875 0.34375 11.625 0.34375 Z M 9.046875 -11.421875 C 10.335938 -11.421875 11.628906 -11.425781 12.921875 -11.4375 C 14.210938 -11.445312 15.390625 -11.46875 16.453125 -11.5 C 16.328125 -12.625 16.101562 -13.628906 15.78125 -14.515625 C 15.46875 -15.398438 15.054688 -16.148438 14.546875 -16.765625 C 14.046875 -17.390625 13.453125 -17.867188 12.765625 -18.203125 C 12.085938 -18.535156 11.335938 -18.703125 10.515625 -18.703125 C 9.773438 -18.703125 9.09375 -18.535156 8.46875 -18.203125 C 7.84375 -17.878906 7.296875 -17.40625 6.828125 -16.78125 C 6.367188 -16.164062 5.992188 -15.410156 5.703125 -14.515625 C 5.421875 -13.628906 5.257812 -12.613281 5.21875 -11.46875 C 5.789062 -11.4375 6.398438 -11.421875 7.046875 -11.421875 C 7.691406 -11.421875 8.359375 -11.421875 9.046875 -11.421875 Z M 9.046875 -11.421875 "/></g></g></g><g fill="#f1e6d8" fill-opacity="1"><g transform="translate(93.874962, 46.139068)"><g><path d="M 1.421875 -5.6875 C 1.421875 -6.707031 1.628906 -7.585938 2.046875 -8.328125 C 2.472656 -9.078125 3.03125 -9.71875 3.71875 -10.25 C 4.414062 -10.78125 5.207031 -11.207031 6.09375 -11.53125 C 6.988281 -11.863281 7.910156 -12.117188 8.859375 -12.296875 C 9.804688 -12.484375 10.742188 -12.613281 11.671875 -12.6875 C 12.597656 -12.757812 13.445312 -12.800781 14.21875 -12.8125 L 14.21875 -13.796875 C 14.21875 -14.648438 14.109375 -15.382812 13.890625 -16 C 13.671875 -16.613281 13.363281 -17.125 12.96875 -17.53125 C 12.570312 -17.9375 12.09375 -18.238281 11.53125 -18.4375 C 10.96875 -18.644531 10.351562 -18.75 9.6875 -18.75 C 9.226562 -18.75 8.769531 -18.707031 8.3125 -18.625 C 7.863281 -18.550781 7.398438 -18.421875 6.921875 -18.234375 C 6.441406 -18.054688 5.929688 -17.8125 5.390625 -17.5 C 4.859375 -17.195312 4.285156 -16.804688 3.671875 -16.328125 L 3.46875 -16.453125 L 4.78125 -19.171875 C 5.207031 -19.359375 5.625 -19.515625 6.03125 -19.640625 C 6.445312 -19.765625 6.867188 -19.863281 7.296875 -19.9375 C 7.722656 -20.019531 8.15625 -20.078125 8.59375 -20.109375 C 9.039062 -20.140625 9.507812 -20.15625 10 -20.15625 C 11.351562 -20.15625 12.507812 -19.988281 13.46875 -19.65625 C 14.425781 -19.332031 15.207031 -18.882812 15.8125 -18.3125 C 16.425781 -17.738281 16.875 -17.066406 17.15625 -16.296875 C 17.4375 -15.535156 17.578125 -14.71875 17.578125 -13.84375 L 17.578125 -7.546875 C 17.578125 -6.453125 17.59375 -5.492188 17.625 -4.671875 C 17.664062 -3.859375 17.707031 -3.15625 17.75 -2.5625 C 17.789062 -1.96875 17.847656 -1.472656 17.921875 -1.078125 C 17.992188 -0.679688 18.066406 -0.347656 18.140625 -0.078125 L 18.140625 0 L 13.875 0 L 13.875 -0.078125 C 13.9375 -0.285156 13.984375 -0.515625 14.015625 -0.765625 C 14.054688 -1.023438 14.085938 -1.335938 14.109375 -1.703125 C 13.835938 -1.460938 13.519531 -1.222656 13.15625 -0.984375 C 12.789062 -0.742188 12.375 -0.519531 11.90625 -0.3125 C 11.4375 -0.113281 10.914062 0.0390625 10.34375 0.15625 C 9.769531 0.28125 9.140625 0.34375 8.453125 0.34375 C 6.210938 0.34375 4.476562 -0.175781 3.25 -1.21875 C 2.03125 -2.269531 1.421875 -3.757812 1.421875 -5.6875 Z M 14.21875 -11.3125 C 13.050781 -11.300781 11.925781 -11.234375 10.84375 -11.109375 C 9.757812 -10.984375 8.800781 -10.726562 7.96875 -10.34375 C 7.144531 -9.957031 6.484375 -9.40625 5.984375 -8.6875 C 5.492188 -7.976562 5.25 -7.03125 5.25 -5.84375 C 5.25 -4.332031 5.628906 -3.175781 6.390625 -2.375 C 7.148438 -1.570312 8.195312 -1.171875 9.53125 -1.171875 C 10.15625 -1.171875 10.71875 -1.257812 11.21875 -1.4375 C 11.726562 -1.613281 12.179688 -1.832031 12.578125 -2.09375 C 12.972656 -2.351562 13.300781 -2.640625 13.5625 -2.953125 C 13.832031 -3.273438 14.039062 -3.582031 14.1875 -3.875 C 14.207031 -4.363281 14.21875 -4.90625 14.21875 -5.5 C 14.21875 -6.101562 14.21875 -6.785156 14.21875 -7.546875 Z M 14.21875 -11.3125 "/></g></g></g><g fill="#f1e6d8" fill-opacity="1"><g transform="translate(114.790383, 46.139068)"><g><path d="M 11.78125 -20.109375 C 12.300781 -20.109375 12.828125 -20.0625 13.359375 -19.96875 C 13.890625 -19.882812 14.40625 -19.757812 14.90625 -19.59375 C 15.40625 -19.425781 15.878906 -19.21875 16.328125 -18.96875 C 16.773438 -18.726562 17.179688 -18.453125 17.546875 -18.140625 L 17.546875 -21.3125 C 17.546875 -22.40625 17.53125 -23.359375 17.5 -24.171875 C 17.476562 -24.992188 17.441406 -25.695312 17.390625 -26.28125 C 17.335938 -26.875 17.28125 -27.367188 17.21875 -27.765625 C 17.15625 -28.171875 17.082031 -28.507812 17 -28.78125 L 17 -28.859375 L 21.46875 -28.859375 L 21.46875 -28.78125 C 21.382812 -28.507812 21.304688 -28.171875 21.234375 -27.765625 C 21.171875 -27.367188 21.113281 -26.875 21.0625 -26.28125 C 21.019531 -25.695312 20.984375 -24.992188 20.953125 -24.171875 C 20.921875 -23.359375 20.90625 -22.40625 20.90625 -21.3125 L 20.90625 -7.546875 C 20.90625 -6.453125 20.921875 -5.492188 20.953125 -4.671875 C 20.984375 -3.859375 21.019531 -3.15625 21.0625 -2.5625 C 21.113281 -1.96875 21.171875 -1.472656 21.234375 -1.078125 C 21.304688 -0.679688 21.382812 -0.347656 21.46875 -0.078125 L 21.46875 0 L 17.203125 0 L 17.203125 -0.078125 C 17.234375 -0.179688 17.257812 -0.332031 17.28125 -0.53125 C 17.3125 -0.726562 17.347656 -0.976562 17.390625 -1.28125 C 16.734375 -0.863281 15.910156 -0.488281 14.921875 -0.15625 C 13.929688 0.175781 12.78125 0.34375 11.46875 0.34375 C 9.9375 0.34375 8.546875 0.109375 7.296875 -0.359375 C 6.046875 -0.835938 4.976562 -1.519531 4.09375 -2.40625 C 3.21875 -3.300781 2.539062 -4.378906 2.0625 -5.640625 C 1.582031 -6.910156 1.34375 -8.335938 1.34375 -9.921875 C 1.34375 -11.378906 1.597656 -12.726562 2.109375 -13.96875 C 2.628906 -15.207031 3.351562 -16.28125 4.28125 -17.1875 C 5.207031 -18.101562 6.304688 -18.816406 7.578125 -19.328125 C 8.859375 -19.847656 10.257812 -20.109375 11.78125 -20.109375 Z M 17.546875 -14.75 C 17.035156 -16.101562 16.296875 -17.097656 15.328125 -17.734375 C 14.367188 -18.378906 13.296875 -18.703125 12.109375 -18.703125 C 11.097656 -18.703125 10.164062 -18.523438 9.3125 -18.171875 C 8.46875 -17.816406 7.742188 -17.304688 7.140625 -16.640625 C 6.535156 -15.972656 6.0625 -15.148438 5.71875 -14.171875 C 5.382812 -13.203125 5.21875 -12.101562 5.21875 -10.875 C 5.21875 -9.476562 5.367188 -8.179688 5.671875 -6.984375 C 5.984375 -5.785156 6.4375 -4.742188 7.03125 -3.859375 C 7.632812 -2.984375 8.378906 -2.296875 9.265625 -1.796875 C 10.148438 -1.304688 11.171875 -1.0625 12.328125 -1.0625 C 12.929688 -1.0625 13.5 -1.128906 14.03125 -1.265625 C 14.5625 -1.410156 15.046875 -1.59375 15.484375 -1.8125 C 15.921875 -2.03125 16.304688 -2.269531 16.640625 -2.53125 C 16.972656 -2.800781 17.25 -3.0625 17.46875 -3.3125 C 17.488281 -3.875 17.503906 -4.503906 17.515625 -5.203125 C 17.535156 -5.910156 17.546875 -6.691406 17.546875 -7.546875 Z M 17.546875 -14.75 "/></g></g></g><g fill="#f1e6d8" fill-opacity="1"><g transform="translate(139.141578, 46.139068)"><g><path d="M 25.15625 -23.4375 L 24.984375 -23.359375 C 23.972656 -24.285156 22.765625 -25.023438 21.359375 -25.578125 C 19.953125 -26.128906 18.40625 -26.40625 16.71875 -26.40625 C 15.09375 -26.40625 13.601562 -26.148438 12.25 -25.640625 C 10.90625 -25.128906 9.742188 -24.390625 8.765625 -23.421875 C 7.796875 -22.460938 7.039062 -21.28125 6.5 -19.875 C 5.957031 -18.476562 5.6875 -16.882812 5.6875 -15.09375 C 5.6875 -13.125 5.941406 -11.285156 6.453125 -9.578125 C 6.972656 -7.878906 7.738281 -6.40625 8.75 -5.15625 C 9.769531 -3.90625 11.039062 -2.921875 12.5625 -2.203125 C 14.09375 -1.492188 15.875 -1.140625 17.90625 -1.140625 C 18.644531 -1.140625 19.378906 -1.21875 20.109375 -1.375 C 20.847656 -1.53125 21.550781 -1.757812 22.21875 -2.0625 C 22.894531 -2.363281 23.53125 -2.726562 24.125 -3.15625 C 24.726562 -3.582031 25.273438 -4.070312 25.765625 -4.625 L 25.984375 -4.5 L 24.4375 -0.5625 C 23.46875 -0.1875 22.398438 0.0976562 21.234375 0.296875 C 20.078125 0.492188 18.90625 0.59375 17.71875 0.59375 C 15.34375 0.59375 13.164062 0.25 11.1875 -0.4375 C 9.207031 -1.125 7.503906 -2.097656 6.078125 -3.359375 C 4.660156 -4.617188 3.554688 -6.132812 2.765625 -7.90625 C 1.972656 -9.675781 1.578125 -11.640625 1.578125 -13.796875 C 1.578125 -15.023438 1.734375 -16.226562 2.046875 -17.40625 C 2.367188 -18.59375 2.832031 -19.71875 3.4375 -20.78125 C 4.039062 -21.851562 4.785156 -22.835938 5.671875 -23.734375 C 6.554688 -24.628906 7.566406 -25.40625 8.703125 -26.0625 C 9.847656 -26.71875 11.101562 -27.226562 12.46875 -27.59375 C 13.84375 -27.957031 15.328125 -28.140625 16.921875 -28.140625 C 19.410156 -28.140625 21.71875 -27.757812 23.84375 -27 Z M 25.15625 -23.4375 "/></g></g></g><g fill="#f1e6d8" fill-opacity="1"><g transform="translate(166.36879, 46.139068)"><g><path d="M 9.171875 -0.234375 L 2.375 -15.09375 C 2.125 -15.65625 1.859375 -16.195312 1.578125 -16.71875 C 1.296875 -17.238281 1.03125 -17.707031 0.78125 -18.125 C 0.53125 -18.539062 0.304688 -18.882812 0.109375 -19.15625 C -0.078125 -19.4375 -0.203125 -19.613281 -0.265625 -19.6875 L -0.265625 -19.765625 L 4.78125 -19.765625 L 4.78125 -19.6875 C 4.757812 -19.625 4.738281 -19.523438 4.71875 -19.390625 C 4.707031 -19.265625 4.703125 -19.148438 4.703125 -19.046875 C 4.703125 -18.648438 4.765625 -18.207031 4.890625 -17.71875 C 5.015625 -17.238281 5.242188 -16.640625 5.578125 -15.921875 L 10.90625 -4.34375 L 15.765625 -15.765625 C 15.972656 -16.242188 16.179688 -16.765625 16.390625 -17.328125 C 16.609375 -17.898438 16.71875 -18.472656 16.71875 -19.046875 C 16.71875 -19.210938 16.703125 -19.347656 16.671875 -19.453125 C 16.648438 -19.566406 16.625 -19.644531 16.59375 -19.6875 L 16.59375 -19.765625 L 20.078125 -19.765625 L 20.078125 -19.6875 C 19.847656 -19.445312 19.554688 -19.015625 19.203125 -18.390625 C 18.847656 -17.765625 18.46875 -16.984375 18.0625 -16.046875 L 8.859375 5.890625 C 8.648438 6.359375 8.4375 6.875 8.21875 7.4375 C 8.007812 8.007812 7.90625 8.585938 7.90625 9.171875 C 7.90625 9.335938 7.914062 9.472656 7.9375 9.578125 C 7.96875 9.691406 8 9.769531 8.03125 9.8125 L 8.03125 9.890625 L 4.421875 9.890625 L 4.421875 9.8125 C 4.660156 9.5625 4.957031 9.128906 5.3125 8.515625 C 5.664062 7.910156 6.046875 7.144531 6.453125 6.21875 Z M 9.171875 -0.234375 "/></g></g></g><g fill="#f1e6d8" fill-opacity="1"><g transform="translate(186.647236, 46.139068)"><g><path d="M 19.015625 -4.109375 L 17.578125 -0.671875 C 17.234375 -0.515625 16.835938 -0.375 16.390625 -0.25 C 15.941406 -0.125 15.472656 -0.015625 14.984375 0.078125 C 14.503906 0.171875 14.019531 0.238281 13.53125 0.28125 C 13.039062 0.320312 12.578125 0.34375 12.140625 0.34375 C 10.585938 0.34375 9.148438 0.117188 7.828125 -0.328125 C 6.503906 -0.785156 5.363281 -1.453125 4.40625 -2.328125 C 3.445312 -3.203125 2.695312 -4.273438 2.15625 -5.546875 C 1.613281 -6.828125 1.34375 -8.285156 1.34375 -9.921875 C 1.34375 -11.378906 1.625 -12.726562 2.1875 -13.96875 C 2.75 -15.207031 3.523438 -16.28125 4.515625 -17.1875 C 5.515625 -18.101562 6.691406 -18.816406 8.046875 -19.328125 C 9.398438 -19.847656 10.867188 -20.109375 12.453125 -20.109375 C 13.171875 -20.109375 13.941406 -20.046875 14.765625 -19.921875 C 15.585938 -19.804688 16.320312 -19.648438 16.96875 -19.453125 L 18.34375 -16.171875 L 18.109375 -16.046875 C 17.785156 -16.441406 17.398438 -16.800781 16.953125 -17.125 C 16.515625 -17.457031 16.023438 -17.738281 15.484375 -17.96875 C 14.953125 -18.195312 14.390625 -18.375 13.796875 -18.5 C 13.203125 -18.632812 12.597656 -18.703125 11.984375 -18.703125 C 10.984375 -18.703125 10.070312 -18.523438 9.25 -18.171875 C 8.425781 -17.816406 7.71875 -17.304688 7.125 -16.640625 C 6.53125 -15.972656 6.066406 -15.148438 5.734375 -14.171875 C 5.410156 -13.203125 5.25 -12.101562 5.25 -10.875 C 5.25 -9.476562 5.40625 -8.179688 5.71875 -6.984375 C 6.039062 -5.785156 6.507812 -4.742188 7.125 -3.859375 C 7.75 -2.984375 8.535156 -2.296875 9.484375 -1.796875 C 10.429688 -1.304688 11.539062 -1.0625 12.8125 -1.0625 C 13.40625 -1.0625 13.992188 -1.132812 14.578125 -1.28125 C 15.171875 -1.425781 15.726562 -1.632812 16.25 -1.90625 C 16.769531 -2.1875 17.25 -2.519531 17.6875 -2.90625 C 18.125 -3.300781 18.488281 -3.742188 18.78125 -4.234375 Z M 19.015625 -4.109375 "/></g></g></g><g fill="#f1e6d8" fill-opacity="1"><g transform="translate(207.08011, 46.139068)"><g><path d="M 3.09375 -21.3125 C 3.09375 -22.40625 3.070312 -23.359375 3.03125 -24.171875 C 3 -24.992188 2.960938 -25.695312 2.921875 -26.28125 C 2.878906 -26.875 2.820312 -27.367188 2.75 -27.765625 C 2.675781 -28.171875 2.601562 -28.507812 2.53125 -28.78125 L 2.53125 -28.859375 L 6.984375 -28.859375 L 6.984375 -28.78125 C 6.910156 -28.507812 6.835938 -28.171875 6.765625 -27.765625 C 6.703125 -27.367188 6.644531 -26.875 6.59375 -26.28125 C 6.550781 -25.695312 6.515625 -24.992188 6.484375 -24.171875 C 6.460938 -23.359375 6.453125 -22.40625 6.453125 -21.3125 L 6.453125 -7.546875 C 6.453125 -6.453125 6.460938 -5.492188 6.484375 -4.671875 C 6.515625 -3.859375 6.550781 -3.15625 6.59375 -2.5625 C 6.644531 -1.96875 6.703125 -1.472656 6.765625 -1.078125 C 6.835938 -0.679688 6.910156 -0.347656 6.984375 -0.078125 L 6.984375 0 L 2.53125 0 L 2.53125 -0.078125 C 2.601562 -0.347656 2.675781 -0.679688 2.75 -1.078125 C 2.820312 -1.472656 2.878906 -1.96875 2.921875 -2.5625 C 2.960938 -3.15625 3 -3.859375 3.03125 -4.671875 C 3.070312 -5.492188 3.09375 -6.453125 3.09375 -7.546875 Z M 3.09375 -21.3125 "/></g></g></g><g fill="#f1e6d8" fill-opacity="1"><g transform="translate(217.089836, 46.139068)"><g><path d="M 11.625 0.34375 C 10.195312 0.34375 8.859375 0.117188 7.609375 -0.328125 C 6.359375 -0.773438 5.269531 -1.429688 4.34375 -2.296875 C 3.414062 -3.171875 2.679688 -4.25 2.140625 -5.53125 C 1.609375 -6.8125 1.34375 -8.273438 1.34375 -9.921875 C 1.34375 -11.378906 1.585938 -12.726562 2.078125 -13.96875 C 2.566406 -15.207031 3.242188 -16.28125 4.109375 -17.1875 C 4.972656 -18.101562 5.976562 -18.816406 7.125 -19.328125 C 8.28125 -19.847656 9.53125 -20.109375 10.875 -20.109375 C 12.195312 -20.109375 13.421875 -19.878906 14.546875 -19.421875 C 15.679688 -18.972656 16.664062 -18.3125 17.5 -17.4375 C 18.332031 -16.570312 18.988281 -15.5 19.46875 -14.21875 C 19.945312 -12.9375 20.207031 -11.476562 20.25 -9.84375 C 18.789062 -9.875 17.332031 -9.894531 15.875 -9.90625 C 14.425781 -9.914062 12.914062 -9.921875 11.34375 -9.921875 C 10.226562 -9.921875 9.140625 -9.914062 8.078125 -9.90625 C 7.015625 -9.894531 6.0625 -9.875 5.21875 -9.84375 C 5.289062 -8.507812 5.492188 -7.300781 5.828125 -6.21875 C 6.171875 -5.132812 6.640625 -4.207031 7.234375 -3.4375 C 7.835938 -2.675781 8.566406 -2.085938 9.421875 -1.671875 C 10.285156 -1.265625 11.253906 -1.0625 12.328125 -1.0625 C 13.078125 -1.0625 13.78125 -1.144531 14.4375 -1.3125 C 15.101562 -1.488281 15.707031 -1.734375 16.25 -2.046875 C 16.789062 -2.359375 17.273438 -2.722656 17.703125 -3.140625 C 18.128906 -3.554688 18.488281 -4.007812 18.78125 -4.5 L 19.015625 -4.375 L 17.578125 -0.953125 C 16.890625 -0.585938 16.0625 -0.28125 15.09375 -0.03125 C 14.125 0.21875 12.96875 0.34375 11.625 0.34375 Z M 9.046875 -11.421875 C 10.335938 -11.421875 11.628906 -11.425781 12.921875 -11.4375 C 14.210938 -11.445312 15.390625 -11.46875 16.453125 -11.5 C 16.328125 -12.625 16.101562 -13.628906 15.78125 -14.515625 C 15.46875 -15.398438 15.054688 -16.148438 14.546875 -16.765625 C 14.046875 -17.390625 13.453125 -17.867188 12.765625 -18.203125 C 12.085938 -18.535156 11.335938 -18.703125 10.515625 -18.703125 C 9.773438 -18.703125 9.09375 -18.535156 8.46875 -18.203125 C 7.84375 -17.878906 7.296875 -17.40625 6.828125 -16.78125 C 6.367188 -16.164062 5.992188 -15.410156 5.703125 -14.515625 C 5.421875 -13.628906 5.257812 -12.613281 5.21875 -11.46875 C 5.789062 -11.4375 6.398438 -11.421875 7.046875 -11.421875 C 7.691406 -11.421875 8.359375 -11.421875 9.046875 -11.421875 Z M 9.046875 -11.421875 "/></g></g></g><g fill="#8b847c" fill-opacity="1"><g transform="translate(11.473841, 71.443269)"><g><path d="M 0.96875 0 L 0.96875 -9.171875 L 3.9375 -9.171875 C 4.644531 -9.171875 5.226562 -9.050781 5.6875 -8.8125 C 6.144531 -8.582031 6.484375 -8.257812 6.703125 -7.84375 C 6.921875 -7.4375 7.03125 -6.984375 7.03125 -6.484375 C 7.03125 -5.910156 6.875 -5.390625 6.5625 -4.921875 C 6.25 -4.460938 5.765625 -4.140625 5.109375 -3.953125 L 7.125 0 L 5.828125 0 L 3.953125 -3.78125 L 2.078125 -3.78125 L 2.078125 0 Z M 2.078125 -4.65625 L 3.859375 -4.65625 C 4.566406 -4.65625 5.082031 -4.820312 5.40625 -5.15625 C 5.726562 -5.5 5.890625 -5.9375 5.890625 -6.46875 C 5.890625 -7.007812 5.726562 -7.441406 5.40625 -7.765625 C 5.082031 -8.085938 4.5625 -8.25 3.84375 -8.25 L 2.078125 -8.25 Z M 2.078125 -4.65625 "/></g></g></g><g fill="#8b847c" fill-opacity="1"><g transform="translate(23.223465, 71.443269)"><g><path d="M 0.96875 0 L 0.96875 -9.171875 L 6.640625 -9.171875 L 6.640625 -8.265625 L 2.078125 -8.265625 L 2.078125 -5.078125 L 6.25 -5.078125 L 6.25 -4.1875 L 2.078125 -4.1875 L 2.078125 -0.90625 L 6.640625 -0.90625 L 6.640625 0 Z M 0.96875 0 "/></g></g></g><g fill="#8b847c" fill-opacity="1"><g transform="translate(34.593333, 71.443269)"><g><path d="M 3.125 0 L 3.125 -8.265625 L 0.375 -8.265625 L 0.375 -9.171875 L 6.96875 -9.171875 L 6.96875 -8.265625 L 4.21875 -8.265625 L 4.21875 0 Z M 3.125 0 "/></g></g></g><g fill="#8b847c" fill-opacity="1"><g transform="translate(45.910827, 71.443269)"><g><path d="M 0.96875 0 L 0.96875 -9.171875 L 2.078125 -9.171875 L 2.078125 -5.125 L 6.828125 -5.125 L 6.828125 -9.171875 L 7.9375 -9.171875 L 7.9375 0 L 6.828125 0 L 6.828125 -4.21875 L 2.078125 -4.21875 L 2.078125 0 Z M 0.96875 0 "/></g></g></g><g fill="#8b847c" fill-opacity="1"><g transform="translate(58.786637, 71.443269)"><g><path d="M 0.96875 0 L 0.96875 -9.171875 L 3.9375 -9.171875 C 4.644531 -9.171875 5.226562 -9.050781 5.6875 -8.8125 C 6.144531 -8.582031 6.484375 -8.257812 6.703125 -7.84375 C 6.921875 -7.4375 7.03125 -6.984375 7.03125 -6.484375 C 7.03125 -5.910156 6.875 -5.390625 6.5625 -4.921875 C 6.25 -4.460938 5.765625 -4.140625 5.109375 -3.953125 L 7.125 0 L 5.828125 0 L 3.953125 -3.78125 L 2.078125 -3.78125 L 2.078125 0 Z M 2.078125 -4.65625 L 3.859375 -4.65625 C 4.566406 -4.65625 5.082031 -4.820312 5.40625 -5.15625 C 5.726562 -5.5 5.890625 -5.9375 5.890625 -6.46875 C 5.890625 -7.007812 5.726562 -7.441406 5.40625 -7.765625 C 5.082031 -8.085938 4.5625 -8.25 3.84375 -8.25 L 2.078125 -8.25 Z M 2.078125 -4.65625 "/></g></g></g><g fill="#8b847c" fill-opacity="1"><g transform="translate(70.536258, 71.443269)"><g><path d="M 0.96875 0 L 0.96875 -9.171875 L 6.640625 -9.171875 L 6.640625 -8.265625 L 2.078125 -8.265625 L 2.078125 -5.078125 L 6.25 -5.078125 L 6.25 -4.1875 L 2.078125 -4.1875 L 2.078125 -0.90625 L 6.640625 -0.90625 L 6.640625 0 Z M 0.96875 0 "/></g></g></g><g fill="#8b847c" fill-opacity="1"><g transform="translate(81.906123, 71.443269)"><g><path d="M 0.390625 0 L 3.78125 -9.171875 L 4.9375 -9.171875 L 8.3125 0 L 7.140625 0 L 6.3125 -2.359375 L 2.40625 -2.359375 L 1.546875 0 Z M 2.734375 -3.25 L 5.984375 -3.25 L 4.359375 -7.78125 Z M 2.734375 -3.25 "/></g></g></g><g fill="#8b847c" fill-opacity="1"><g transform="translate(94.585509, 71.443269)"><g><path d="M 0.96875 0 L 0.96875 -9.171875 L 3.78125 -9.171875 C 5.40625 -9.171875 6.597656 -8.757812 7.359375 -7.9375 C 8.128906 -7.125 8.515625 -6 8.515625 -4.5625 C 8.515625 -3.15625 8.128906 -2.039062 7.359375 -1.21875 C 6.597656 -0.40625 5.40625 0 3.78125 0 Z M 2.078125 -0.921875 L 3.765625 -0.921875 C 4.648438 -0.921875 5.359375 -1.066406 5.890625 -1.359375 C 6.421875 -1.648438 6.800781 -2.066406 7.03125 -2.609375 C 7.257812 -3.160156 7.375 -3.8125 7.375 -4.5625 C 7.375 -5.332031 7.257812 -5.992188 7.03125 -6.546875 C 6.800781 -7.097656 6.421875 -7.519531 5.890625 -7.8125 C 5.359375 -8.113281 4.648438 -8.265625 3.765625 -8.265625 L 2.078125 -8.265625 Z M 2.078125 -0.921875 "/></g></g></g><g fill="#8b847c" fill-opacity="1"><g transform="translate(107.683941, 71.443269)"><g/></g></g><g fill="#8b847c" fill-opacity="1"><g transform="translate(115.138349, 71.443269)"><g><path d="M 3.25 0 L 3.25 -3.484375 L 0.265625 -9.171875 L 1.5 -9.171875 L 3.796875 -4.53125 L 6.09375 -9.171875 L 7.328125 -9.171875 L 4.359375 -3.484375 L 4.359375 0 Z M 3.25 0 "/></g></g></g><g fill="#8b847c" fill-opacity="1"><g transform="translate(126.704646, 71.443269)"><g><path d="M 5.140625 0.15625 C 4.234375 0.15625 3.441406 -0.0390625 2.765625 -0.4375 C 2.085938 -0.832031 1.554688 -1.390625 1.171875 -2.109375 C 0.796875 -2.828125 0.609375 -3.65625 0.609375 -4.59375 C 0.609375 -5.519531 0.796875 -6.335938 1.171875 -7.046875 C 1.554688 -7.765625 2.085938 -8.320312 2.765625 -8.71875 C 3.441406 -9.125 4.234375 -9.328125 5.140625 -9.328125 C 6.046875 -9.328125 6.835938 -9.125 7.515625 -8.71875 C 8.191406 -8.320312 8.71875 -7.765625 9.09375 -7.046875 C 9.46875 -6.335938 9.65625 -5.519531 9.65625 -4.59375 C 9.65625 -3.65625 9.46875 -2.828125 9.09375 -2.109375 C 8.71875 -1.390625 8.191406 -0.832031 7.515625 -0.4375 C 6.835938 -0.0390625 6.046875 0.15625 5.140625 0.15625 Z M 5.140625 -0.8125 C 5.804688 -0.8125 6.394531 -0.960938 6.90625 -1.265625 C 7.425781 -1.566406 7.828125 -2 8.109375 -2.5625 C 8.390625 -3.125 8.53125 -3.800781 8.53125 -4.59375 C 8.53125 -5.375 8.390625 -6.046875 8.109375 -6.609375 C 7.828125 -7.171875 7.425781 -7.597656 6.90625 -7.890625 C 6.394531 -8.191406 5.804688 -8.34375 5.140625 -8.34375 C 4.460938 -8.34375 3.867188 -8.191406 3.359375 -7.890625 C 2.847656 -7.597656 2.453125 -7.171875 2.171875 -6.609375 C 1.890625 -6.046875 1.75 -5.375 1.75 -4.59375 C 1.75 -3.800781 1.890625 -3.125 2.171875 -2.5625 C 2.453125 -2 2.847656 -1.566406 3.359375 -1.265625 C 3.867188 -0.960938 4.460938 -0.8125 5.140625 -0.8125 Z M 5.140625 -0.8125 "/></g></g></g><g fill="#8b847c" fill-opacity="1"><g transform="translate(140.955455, 71.443269)"><g><path d="M 4.28125 0.15625 C 3.65625 0.15625 3.085938 0.03125 2.578125 -0.21875 C 2.066406 -0.46875 1.65625 -0.851562 1.34375 -1.375 C 1.039062 -1.894531 0.890625 -2.5625 0.890625 -3.375 L 0.890625 -9.171875 L 2 -9.171875 L 2 -3.375 C 2 -2.476562 2.210938 -1.828125 2.640625 -1.421875 C 3.066406 -1.023438 3.625 -0.828125 4.3125 -0.828125 C 5 -0.828125 5.550781 -1.023438 5.96875 -1.421875 C 6.394531 -1.828125 6.609375 -2.476562 6.609375 -3.375 L 6.609375 -9.171875 L 7.703125 -9.171875 L 7.703125 -3.375 C 7.703125 -2.5625 7.550781 -1.894531 7.25 -1.375 C 6.945312 -0.851562 6.535156 -0.46875 6.015625 -0.21875 C 5.503906 0.03125 4.925781 0.15625 4.28125 0.15625 Z M 4.28125 0.15625 "/></g></g></g><g fill="#8b847c" fill-opacity="1"><g transform="translate(153.530083, 71.443269)"><g><path d="M 0.96875 0 L 0.96875 -9.171875 L 3.9375 -9.171875 C 4.644531 -9.171875 5.226562 -9.050781 5.6875 -8.8125 C 6.144531 -8.582031 6.484375 -8.257812 6.703125 -7.84375 C 6.921875 -7.4375 7.03125 -6.984375 7.03125 -6.484375 C 7.03125 -5.910156 6.875 -5.390625 6.5625 -4.921875 C 6.25 -4.460938 5.765625 -4.140625 5.109375 -3.953125 L 7.125 0 L 5.828125 0 L 3.953125 -3.78125 L 2.078125 -3.78125 L 2.078125 0 Z M 2.078125 -4.65625 L 3.859375 -4.65625 C 4.566406 -4.65625 5.082031 -4.820312 5.40625 -5.15625 C 5.726562 -5.5 5.890625 -5.9375 5.890625 -6.46875 C 5.890625 -7.007812 5.726562 -7.441406 5.40625 -7.765625 C 5.082031 -8.085938 4.5625 -8.25 3.84375 -8.25 L 2.078125 -8.25 Z M 2.078125 -4.65625 "/></g></g></g><g fill="#8b847c" fill-opacity="1"><g transform="translate(165.279704, 71.443269)"><g/></g></g><g fill="#8b847c" fill-opacity="1"><g transform="translate(172.734112, 71.443269)"><g><path d="M 3.890625 0.15625 C 3.222656 0.15625 2.640625 0.0351562 2.140625 -0.203125 C 1.640625 -0.453125 1.253906 -0.796875 0.984375 -1.234375 C 0.710938 -1.671875 0.578125 -2.175781 0.578125 -2.75 L 1.734375 -2.75 C 1.734375 -2.394531 1.816406 -2.066406 1.984375 -1.765625 C 2.148438 -1.460938 2.390625 -1.222656 2.703125 -1.046875 C 3.023438 -0.867188 3.421875 -0.78125 3.890625 -0.78125 C 4.515625 -0.78125 4.992188 -0.925781 5.328125 -1.21875 C 5.671875 -1.519531 5.84375 -1.890625 5.84375 -2.328125 C 5.84375 -2.703125 5.765625 -3 5.609375 -3.21875 C 5.453125 -3.4375 5.238281 -3.613281 4.96875 -3.75 C 4.707031 -3.894531 4.40625 -4.019531 4.0625 -4.125 C 3.71875 -4.226562 3.351562 -4.347656 2.96875 -4.484375 C 2.257812 -4.722656 1.734375 -5.023438 1.390625 -5.390625 C 1.054688 -5.753906 0.890625 -6.226562 0.890625 -6.8125 C 0.878906 -7.300781 0.992188 -7.734375 1.234375 -8.109375 C 1.472656 -8.492188 1.804688 -8.789062 2.234375 -9 C 2.671875 -9.21875 3.1875 -9.328125 3.78125 -9.328125 C 4.363281 -9.328125 4.867188 -9.21875 5.296875 -9 C 5.734375 -8.78125 6.070312 -8.476562 6.3125 -8.09375 C 6.550781 -7.71875 6.675781 -7.285156 6.6875 -6.796875 L 5.53125 -6.796875 C 5.53125 -7.046875 5.460938 -7.296875 5.328125 -7.546875 C 5.203125 -7.796875 5.003906 -8 4.734375 -8.15625 C 4.472656 -8.3125 4.140625 -8.390625 3.734375 -8.390625 C 3.234375 -8.398438 2.820312 -8.269531 2.5 -8 C 2.1875 -7.738281 2.03125 -7.378906 2.03125 -6.921875 C 2.03125 -6.523438 2.140625 -6.222656 2.359375 -6.015625 C 2.585938 -5.804688 2.898438 -5.632812 3.296875 -5.5 C 3.703125 -5.363281 4.164062 -5.207031 4.6875 -5.03125 C 5.125 -4.875 5.515625 -4.691406 5.859375 -4.484375 C 6.210938 -4.273438 6.488281 -4.003906 6.6875 -3.671875 C 6.882812 -3.335938 6.984375 -2.914062 6.984375 -2.40625 C 6.984375 -1.96875 6.867188 -1.550781 6.640625 -1.15625 C 6.421875 -0.769531 6.078125 -0.453125 5.609375 -0.203125 C 5.148438 0.0351562 4.578125 0.15625 3.890625 0.15625 Z M 3.890625 0.15625 "/></g></g></g><g fill="#8b847c" fill-opacity="1"><g transform="translate(184.287313, 71.443269)"><g><path d="M 3.125 0 L 3.125 -8.265625 L 0.375 -8.265625 L 0.375 -9.171875 L 6.96875 -9.171875 L 6.96875 -8.265625 L 4.21875 -8.265625 L 4.21875 0 Z M 3.125 0 "/></g></g></g><g fill="#8b847c" fill-opacity="1"><g transform="translate(195.604804, 71.443269)"><g><path d="M 5.140625 0.15625 C 4.234375 0.15625 3.441406 -0.0390625 2.765625 -0.4375 C 2.085938 -0.832031 1.554688 -1.390625 1.171875 -2.109375 C 0.796875 -2.828125 0.609375 -3.65625 0.609375 -4.59375 C 0.609375 -5.519531 0.796875 -6.335938 1.171875 -7.046875 C 1.554688 -7.765625 2.085938 -8.320312 2.765625 -8.71875 C 3.441406 -9.125 4.234375 -9.328125 5.140625 -9.328125 C 6.046875 -9.328125 6.835938 -9.125 7.515625 -8.71875 C 8.191406 -8.320312 8.71875 -7.765625 9.09375 -7.046875 C 9.46875 -6.335938 9.65625 -5.519531 9.65625 -4.59375 C 9.65625 -3.65625 9.46875 -2.828125 9.09375 -2.109375 C 8.71875 -1.390625 8.191406 -0.832031 7.515625 -0.4375 C 6.835938 -0.0390625 6.046875 0.15625 5.140625 0.15625 Z M 5.140625 -0.8125 C 5.804688 -0.8125 6.394531 -0.960938 6.90625 -1.265625 C 7.425781 -1.566406 7.828125 -2 8.109375 -2.5625 C 8.390625 -3.125 8.53125 -3.800781 8.53125 -4.59375 C 8.53125 -5.375 8.390625 -6.046875 8.109375 -6.609375 C 7.828125 -7.171875 7.425781 -7.597656 6.90625 -7.890625 C 6.394531 -8.191406 5.804688 -8.34375 5.140625 -8.34375 C 4.460938 -8.34375 3.867188 -8.191406 3.359375 -7.890625 C 2.847656 -7.597656 2.453125 -7.171875 2.171875 -6.609375 C 1.890625 -6.046875 1.75 -5.375 1.75 -4.59375 C 1.75 -3.800781 1.890625 -3.125 2.171875 -2.5625 C 2.453125 -2 2.847656 -1.566406 3.359375 -1.265625 C 3.867188 -0.960938 4.460938 -0.8125 5.140625 -0.8125 Z M 5.140625 -0.8125 "/></g></g></g><g fill="#8b847c" fill-opacity="1"><g transform="translate(209.855613, 71.443269)"><g><path d="M 0.96875 0 L 0.96875 -9.171875 L 3.9375 -9.171875 C 4.644531 -9.171875 5.226562 -9.050781 5.6875 -8.8125 C 6.144531 -8.582031 6.484375 -8.257812 6.703125 -7.84375 C 6.921875 -7.4375 7.03125 -6.984375 7.03125 -6.484375 C 7.03125 -5.910156 6.875 -5.390625 6.5625 -4.921875 C 6.25 -4.460938 5.765625 -4.140625 5.109375 -3.953125 L 7.125 0 L 5.828125 0 L 3.953125 -3.78125 L 2.078125 -3.78125 L 2.078125 0 Z M 2.078125 -4.65625 L 3.859375 -4.65625 C 4.566406 -4.65625 5.082031 -4.820312 5.40625 -5.15625 C 5.726562 -5.5 5.890625 -5.9375 5.890625 -6.46875 C 5.890625 -7.007812 5.726562 -7.441406 5.40625 -7.765625 C 5.082031 -8.085938 4.5625 -8.25 3.84375 -8.25 L 2.078125 -8.25 Z M 2.078125 -4.65625 "/></g></g></g><g fill="#8b847c" fill-opacity="1"><g transform="translate(221.605246, 71.443269)"><g><path d="M 3.25 0 L 3.25 -3.484375 L 0.265625 -9.171875 L 1.5 -9.171875 L 3.796875 -4.53125 L 6.09375 -9.171875 L 7.328125 -9.171875 L 4.359375 -3.484375 L 4.359375 0 Z M 3.25 0 "/></g></g></g></svg>